<?xml version="1.0" encoding="UTF-8"?>
<svg width="509px" height="250px" viewBox="0 0 509 250" version="1.1" xmlns="http://www.w3.org/2000/svg" xmlns:xlink="http://www.w3.org/1999/xlink">
    <!-- Generator: Sketch 52.4 (67378) - http://www.bohemiancoding.com/sketch -->
    <title>404-error</title>
    <desc>Created with Sketch.</desc>
    <g id="Page-1" stroke="none" stroke-width="1" fill="none" fill-rule="evenodd">
        <g id="404-error" transform="translate(0.000000, -1.000000)" fill="#FFFFFF">
            <path d="M255.1,250.6 C172.8,250.6 90.5,250.6 8.1,250.5 C5.8,250.5 1.6,252.1 1.6,248.4 C1.6,245.2 5.7,246.7 7.9,246.7 C29.4,246.6 50.9,246.6 72.4,246.7 C76.1,246.7 77.9,246.1 75.7,242.1 C74.7,240.3 75,238.2 75,236.2 C75,195 75,153.9 75,112.7 C75,102.8 79.4,98.4 89.4,98.4 C101.7,98.4 114.1,98.3 126.4,98.5 C130.1,98.6 131.3,97.4 131.2,93.7 C131,74.2 131.1,54.7 131.1,35.2 C131.1,25.3 135.1,21.3 145.1,21.3 C230.4,21.3 315.7,21.3 401.1,21.3 C410.7,21.3 414.8,25.4 414.8,35 C414.8,69.2 414.9,103.3 414.7,137.5 C414.7,141.6 415.7,143 420,142.8 C427,142.5 434,142.7 441,142.7 C448,142.7 450.7,145.3 450.7,152.3 C450.7,182.3 450.8,212.3 450.6,242.3 C450.6,246 451.5,246.7 454.9,246.7 C470.7,246.6 486.6,246.6 502.4,246.6 C503.6,246.6 504.7,246.6 505.9,246.6 C507,246.6 507.9,246.9 508.1,248.2 C508.2,249.7 507.3,250.4 506,250.5 C504.3,250.6 502.7,250.6 501,250.6 C419.1,250.6 337.1,250.6 255.1,250.6 Z M273.1,35.6 C232.9,35.6 192.8,35.6 152.6,35.6 C149.5,35.6 146.7,35.1 146.7,39.9 C146.9,58.1 146.8,76.2 146.7,94.4 C146.7,97.5 147.8,98.5 150.8,98.4 C158.1,98.3 165.5,98.3 172.8,98.4 C182.6,98.5 187,102.9 187,112.9 C187,132.4 187.2,151.9 186.9,171.4 C186.8,176.2 188.4,177.2 192.8,177.1 C206,176.8 219.1,177 232.3,177 C281.5,177 330.6,176.9 379.8,177.1 C384.5,177.1 386.3,176.2 386,171.1 C385.5,164.5 385.8,157.8 385.9,151.1 C386,145.5 388.7,142.4 394.1,142.8 C399,143.1 399.3,140.8 399.3,136.9 C399.2,105.2 399.1,73.6 399.3,41.9 C399.3,36.9 398,35.4 392.9,35.5 C353.1,35.7 313.1,35.6 273.1,35.6 Z M286.6,181 C255.1,181 223.6,181.1 192.2,180.9 C188.5,180.9 186.7,181.6 187.1,185.8 C187.5,190.1 187.5,194.5 187.1,198.8 C186.7,203.3 188.1,204.7 192.8,204.7 C225.9,204.5 259.1,204.6 292.2,204.6 C321.7,204.6 351.2,204.5 380.6,204.7 C384.6,204.7 386.4,203.9 386,199.5 C385.6,195.2 385.6,190.8 386,186.5 C386.4,182.1 385,180.9 380.5,180.9 C349.2,181.1 317.9,181 286.6,181 Z M273.3,25.2 C230.7,25.2 188,25.2 145.4,25.2 C137.6,25.2 135.2,27.6 135.2,35.3 C135.2,54.6 135.2,73.9 135.2,93.3 C135.2,95.9 134.5,98.5 138.9,98.6 C143.6,98.7 142.9,95.8 142.9,93 C142.9,75.7 142.9,58.3 142.9,41 C142.9,32.9 144.1,31.7 152.1,31.7 C232.7,31.7 313.4,31.7 394,31.7 C402.3,31.7 403.4,32.8 403.4,41.3 C403.4,69.3 403.4,97.3 403.4,125.3 C403.4,130 403.5,134.6 403.4,139.3 C403.3,141.9 404.4,142.5 406.9,142.8 C411.3,143.3 411.2,140.8 411.2,137.7 C411.1,104 411.2,70.4 411.2,36.7 C411.2,27.2 409.3,25.2 399.9,25.2 C357.6,25.2 315.4,25.2 273.3,25.2 Z M183.1,174.4 C183.1,154.1 183.1,133.7 183.1,113.4 C183.1,104.9 180.6,102.4 172.1,102.3 C144.8,102.3 117.4,102.3 90.1,102.3 C81.6,102.3 79,104.9 79,113.3 C79,154.1 79,194.9 79,235.8 C79,243.8 81.8,246.7 89.8,246.7 C117.3,246.7 144.8,246.7 172.3,246.7 C180.4,246.7 183.1,243.9 183.1,235.9 C183.1,215.3 183.1,194.9 183.1,174.4 Z M339.5,208.5 C327,208.5 314.5,208.4 302,208.5 C291.3,208.6 292.7,206.7 292.7,218.1 C292.7,230.6 300.9,238.6 313.4,238.8 C314.7,238.8 316.1,238.9 317.4,238.8 C321.2,238.6 324,240.1 324.6,244.1 C324.9,246.3 326,246.7 327.9,246.7 C346.2,246.7 364.5,246.7 382.8,246.7 C385.2,246.7 385.9,246 385.8,243.5 C385.6,233.7 385.5,223.9 385.8,214 C385.9,209.7 384.8,208.2 380.3,208.3 C366.9,208.6 353.2,208.5 339.5,208.5 Z M184.7,246.6 C195.9,246.6 206.6,246.6 217.2,246.6 C220.2,246.6 223.1,247.3 223.3,242.6 C223.4,240.3 226,238.9 228.5,238.8 C230.7,238.7 232.8,238.8 235,238.7 C245.9,238.4 253.9,230.8 254.7,220 C254.9,217.7 254.6,215.3 254.8,213 C255.3,209.1 253.5,208.2 249.9,208.3 C232.7,208.5 215.6,208.4 198.4,208.4 C186.9,208.4 187.1,208.4 186.8,219.8 C186.7,228.5 188.8,237.5 184.7,246.6 Z M389.8,196.6 C389.8,211.1 389.9,225.6 389.7,240.1 C389.6,244.7 391.2,246.8 396,246.7 C410.8,246.5 425.7,246.5 440.5,246.7 C445.4,246.8 446.9,244.6 446.9,240 C446.8,211 446.8,182 446.9,153 C446.9,148.3 445.3,146.4 440.5,146.5 C425.8,146.7 411.2,146.6 396.5,146.6 C390.3,146.6 389.8,147.1 389.8,153.6 C389.8,167.9 389.8,182.3 389.8,196.6 Z M273.5,246.6 C287,246.6 300.5,246.7 313.9,246.5 C316.2,246.5 320.4,248.2 320.4,244.4 C320.4,241.4 316.3,242.8 314,242.8 C298.8,242.6 289,232.9 288.9,217.8 C288.9,216.5 288.7,215.1 288.9,213.8 C289.6,209.2 287.5,208.1 283.3,208.3 C277.2,208.6 271,208.7 264.8,208.3 C259.9,208 258.3,209.6 258.7,214.4 C259.3,221.7 258.1,228.7 253,234.4 C247.2,240.9 239.8,243 231.4,242.7 C229.8,242.6 227.1,241.8 227.2,244.6 C227.2,247.2 229.9,246.5 231.5,246.5 C245.5,246.7 259.5,246.6 273.5,246.6 Z" id="Shape" fill-rule="nonzero"></path>
            <g id="Group">
                <path d="M254,250.6 C171.7,250.6 89.4,250.6 7,250.5 C4.7,250.5 0.5,252.1 0.5,248.4 C0.5,245.2 4.6,246.7 6.8,246.7 C28.3,246.6 49.8,246.6 71.3,246.7 C75,246.7 76.8,246.1 74.6,242.1 C73.6,240.3 73.9,238.2 73.9,236.2 C73.9,195 73.9,153.9 73.9,112.7 C73.9,102.8 78.3,98.4 88.3,98.4 C100.6,98.4 113,98.3 125.3,98.5 C129,98.6 130.2,97.4 130.1,93.7 C129.9,74.2 130,54.7 130,35.2 C130,25.3 134,21.3 144,21.3 C229.3,21.3 314.6,21.3 400,21.3 C409.6,21.3 413.7,25.4 413.7,35 C413.7,69.2 413.8,103.3 413.6,137.5 C413.6,141.6 414.6,143 418.9,142.8 C425.9,142.5 432.9,142.7 439.9,142.7 C446.9,142.7 449.6,145.3 449.6,152.3 C449.6,182.3 449.7,212.3 449.5,242.3 C449.5,246 450.4,246.7 453.8,246.7 C469.6,246.6 485.5,246.6 501.3,246.6 C502.5,246.6 503.6,246.6 504.8,246.6 C505.9,246.6 506.8,246.9 507,248.2 C507.1,249.7 506.2,250.4 504.9,250.5 C503.2,250.6 501.6,250.6 499.9,250.6 C417.9,250.6 336,250.6 254,250.6 Z M271.9,35.6 C231.7,35.6 191.6,35.6 151.4,35.6 C148.3,35.6 145.5,35.1 145.5,39.9 C145.7,58.1 145.6,76.2 145.5,94.4 C145.5,97.5 146.6,98.5 149.6,98.4 C156.9,98.3 164.3,98.3 171.6,98.4 C181.4,98.5 185.8,102.9 185.8,112.9 C185.8,132.4 186,151.9 185.7,171.4 C185.6,176.2 187.2,177.2 191.6,177.1 C204.8,176.8 217.9,177 231.1,177 C280.3,177 329.4,176.9 378.6,177.1 C383.3,177.1 385.1,176.2 384.8,171.1 C384.3,164.5 384.6,157.8 384.7,151.1 C384.8,145.5 387.5,142.4 392.9,142.8 C397.8,143.1 398.1,140.8 398.1,136.9 C398,105.2 397.9,73.6 398.1,41.9 C398.1,36.9 396.8,35.4 391.7,35.5 C351.9,35.7 311.9,35.6 271.9,35.6 Z M285.4,181 C253.9,181 222.4,181.1 191,180.9 C187.3,180.9 185.5,181.6 185.9,185.8 C186.3,190.1 186.3,194.5 185.9,198.8 C185.5,203.3 186.9,204.7 191.6,204.7 C224.7,204.5 257.9,204.6 291,204.6 C320.5,204.6 350,204.5 379.4,204.7 C383.4,204.7 385.2,203.9 384.8,199.5 C384.4,195.2 384.4,190.8 384.8,186.5 C385.2,182.1 383.8,180.9 379.3,180.9 C348,181.1 316.7,181 285.4,181 Z M272.1,25.2 C229.5,25.2 186.8,25.2 144.2,25.2 C136.4,25.2 134,27.6 134,35.3 C134,54.6 134,73.9 134,93.3 C134,95.9 133.3,98.5 137.7,98.6 C142.4,98.7 141.7,95.8 141.7,93 C141.7,75.7 141.7,58.3 141.7,41 C141.7,32.9 142.9,31.7 150.9,31.7 C231.5,31.7 312.2,31.7 392.8,31.7 C401.1,31.7 402.2,32.8 402.2,41.3 C402.2,69.3 402.2,97.3 402.2,125.3 C402.2,130 402.3,134.6 402.2,139.3 C402.1,141.9 403.2,142.5 405.7,142.8 C410.1,143.3 410,140.8 410,137.7 C409.9,104 410,70.4 410,36.7 C410,27.2 408.1,25.2 398.7,25.2 C356.4,25.2 314.2,25.2 272.1,25.2 Z M182,174.4 C182,154.1 182,133.7 182,113.4 C182,104.9 179.5,102.4 171,102.3 C143.7,102.3 116.3,102.3 89,102.3 C80.5,102.3 77.9,104.9 77.9,113.3 C77.9,154.1 77.9,194.9 77.9,235.8 C77.9,243.8 80.7,246.7 88.7,246.7 C116.2,246.7 143.7,246.7 171.2,246.7 C179.3,246.7 182,243.9 182,235.9 C182,215.3 182,194.9 182,174.4 Z M338.4,208.5 C325.9,208.5 313.4,208.4 300.9,208.5 C290.2,208.6 291.6,206.7 291.6,218.1 C291.6,230.6 299.8,238.6 312.3,238.8 C313.6,238.8 315,238.9 316.3,238.8 C320.1,238.6 322.9,240.1 323.5,244.1 C323.8,246.3 324.9,246.7 326.8,246.7 C345.1,246.7 363.4,246.7 381.7,246.7 C384.1,246.7 384.8,246 384.7,243.5 C384.5,233.7 384.4,223.9 384.7,214 C384.8,209.7 383.7,208.2 379.2,208.3 C365.7,208.6 352,208.5 338.4,208.5 Z M183.5,246.6 C194.7,246.6 205.4,246.6 216,246.6 C219,246.6 221.9,247.3 222.1,242.6 C222.2,240.3 224.8,238.9 227.3,238.8 C229.5,238.7 231.6,238.8 233.8,238.7 C244.7,238.4 252.7,230.8 253.5,220 C253.7,217.7 253.4,215.3 253.6,213 C254.1,209.1 252.3,208.2 248.7,208.3 C231.5,208.5 214.4,208.4 197.2,208.4 C185.7,208.4 185.9,208.4 185.6,219.8 C185.6,228.5 187.6,237.5 183.5,246.6 Z M388.7,196.6 C388.7,211.1 388.8,225.6 388.6,240.1 C388.5,244.7 390.1,246.8 394.9,246.7 C409.7,246.5 424.6,246.5 439.4,246.7 C444.3,246.8 445.8,244.6 445.8,240 C445.7,211 445.7,182 445.8,153 C445.8,148.3 444.2,146.4 439.4,146.5 C424.7,146.7 410.1,146.6 395.4,146.6 C389.2,146.6 388.7,147.1 388.7,153.6 C388.7,167.9 388.7,182.3 388.7,196.6 Z M272.3,246.6 C285.8,246.6 299.3,246.7 312.7,246.5 C315,246.5 319.2,248.2 319.2,244.4 C319.2,241.4 315.1,242.8 312.8,242.8 C297.6,242.6 287.8,232.9 287.7,217.8 C287.7,216.5 287.5,215.1 287.7,213.8 C288.4,209.2 286.3,208.1 282.1,208.3 C276,208.6 269.8,208.7 263.6,208.3 C258.7,208 257.1,209.6 257.5,214.4 C258.1,221.7 256.9,228.7 251.8,234.4 C246,240.9 238.6,243 230.2,242.7 C228.6,242.6 225.9,241.8 226,244.6 C226,247.2 228.7,246.5 230.3,246.5 C244.4,246.7 258.3,246.6 272.3,246.6 Z" id="Shape" fill-rule="nonzero"></path>
                <path d="M429.6,9.5 C429.4,11 421.7,18.8 420.6,18.8 C420,18.8 419.3,18.5 418.9,18.1 C418,17.2 418.5,16.2 419.2,15.4 C421.5,13 423.8,10.7 426.2,8.4 C427,7.6 428,7.4 428.9,8.1 C429.3,8.5 429.5,9.2 429.6,9.5 Z" id="Path"></path>
                <path d="M431.1,32 C429.1,31.2 425.4,33.2 425.3,30.2 C425.1,26.5 429.1,28.1 431.2,28.1 C433.3,28.1 437.2,26.6 437.1,30.2 C437,33.3 433.2,31.3 431.1,32 Z" id="Path"></path>
                <path d="M71.8,95 C71.2,97.1 69.8,97.4 68.5,96.1 C66.4,94.1 63.5,92.7 63,89.4 C62.9,88.6 63.7,87.7 64.6,87.9 C67.6,88.8 69.1,91.6 71.2,93.6 C71.6,94.1 71.6,94.6 71.8,95 Z" id="Path"></path>
                <path d="M409.9,5.5 C409.9,6.5 410,7 409.9,7.5 C409.7,9.1 410.6,11.7 407.9,11.6 C405.3,11.5 406.2,8.9 406,7.3 C405.9,6.8 405.9,6.3 406,5.8 C406.3,4 405.1,1 407.8,1 C411.2,0.9 409.3,4.3 409.9,5.5 Z" id="Path"></path>
                <path d="M81.2,87 C80.6,89 82.1,91.9 79.2,92 C76.3,92.1 77.1,89.2 77.1,87.4 C77.1,85.6 76.2,82.8 79,82.7 C82.4,82.6 80.3,85.8 81.2,87 Z" id="Path"></path>
                <path d="M62.6,105.8 C60.9,105.5 58.4,106.5 58.2,104 C58,101.2 60.6,101.9 62.2,101.9 C63.9,101.9 66.4,101.2 66.7,103.6 C66.9,106.3 64.2,105.6 62.6,105.8 Z" id="Path"></path>
                <path d="M382.9,103 C382.8,126.9 363.2,146.5 339.3,146.6 C315.2,146.7 295.4,126.9 295.4,102.8 C295.4,78.7 315.2,58.9 339.3,59 C363.4,59 383,78.7 382.9,103 Z M321.5,126.1 C323.7,126.2 325.2,124.9 326.7,123.5 C330,120.2 333.4,117 336.5,113.6 C338.6,111.2 340.1,111.5 342.1,113.7 C345.4,117.3 348.9,120.6 352.3,124 C354.9,126.6 357.9,127.3 360.6,124.6 C363.3,121.9 362.6,118.9 360,116.2 C356.6,112.8 353.3,109.2 349.7,106 C347.5,104 347.3,102.5 349.6,100.4 C353.3,97.1 356.7,93.4 360.2,89.9 C362.9,87.2 364.2,84.2 361.2,81.2 C358.3,78.3 355.2,79.2 352.5,82 C349.2,85.3 345.7,88.4 342.7,91.9 C340.2,94.7 338.4,95.3 335.7,92.1 C333.2,89 330.1,86.4 327.3,83.6 C322.8,79.1 319.9,78.4 317.1,81.1 C314.3,83.8 315,86.9 319.3,91.3 C322.1,94.1 324.8,97.1 327.8,99.7 C330.7,102.2 331.1,104 328,106.7 C324.3,109.8 321.1,113.4 317.7,116.9 C316,118.7 315.3,120.9 316.6,123.3 C317.7,125 319.3,126 321.5,126.1 Z" id="Shape" fill-rule="nonzero"></path>
                <path d="M232.3,83.8 C217.7,83.8 203,83.8 188.4,83.8 C186.6,83.8 183.7,84.8 183.7,81.8 C183.7,79.2 186.4,79.9 188.1,79.9 C217.9,79.9 247.7,79.9 277.4,79.9 C279.1,79.9 281.7,79.3 281.6,82 C281.5,84.6 278.9,83.8 277.2,83.8 C262.2,83.8 247.2,83.8 232.3,83.8 Z" id="Path"></path>
                <path d="M243.4,121.8 C254.7,121.8 266,121.8 277.3,121.8 C279,121.8 281.6,121 281.6,123.7 C281.6,126.3 278.9,125.6 277.3,125.6 C254.9,125.6 232.4,125.6 210,125.6 C208.3,125.6 205.7,126.2 205.7,123.6 C205.7,120.9 208.4,121.8 210,121.8 C221.1,121.7 232.2,121.8 243.4,121.8 Z" id="Path"></path>
                <path d="M243.4,100.8 C254.7,100.8 266,100.8 277.3,100.8 C279,100.8 281.6,100.1 281.6,102.8 C281.6,105.4 278.9,104.7 277.3,104.7 C254.8,104.7 232.4,104.7 209.9,104.7 C208.2,104.7 205.6,105.4 205.7,102.7 C205.8,100 208.4,100.8 210,100.8 C221.1,100.8 232.3,100.8 243.4,100.8 Z" id="Path"></path>
                <path d="M243.8,58.9 C254.9,58.9 266.1,58.9 277.2,58.9 C278.9,58.9 281.5,58.3 281.6,60.9 C281.7,63.6 279,62.9 277.4,62.9 C254.9,62.9 232.5,62.9 210,62.9 C208.4,62.9 205.7,63.8 205.7,61.1 C205.6,58.4 208.2,59 209.9,59 C221.2,58.9 232.5,58.9 243.8,58.9 Z" id="Path"></path>
                <path d="M262,142.7 C267.5,142.7 273,142.7 278.4,142.7 C279.8,142.7 281.7,142.5 281.6,144.7 C281.5,146.4 280,146.6 278.6,146.6 C267.5,146.6 256.4,146.6 245.2,146.6 C243.7,146.6 241.9,146.5 242,144.4 C242.1,142.3 244.1,142.7 245.5,142.6 C251,142.7 256.5,142.7 262,142.7 Z" id="Path"></path>
                <path d="M219.3,142.7 C222.8,142.7 226.3,142.7 229.8,142.7 C231.2,142.7 232.7,142.8 232.6,144.7 C232.5,146.1 231.3,146.6 230.1,146.6 C222.8,146.6 215.4,146.6 208.1,146.6 C206.9,146.6 205.7,146.1 205.6,144.7 C205.5,142.8 207,142.7 208.4,142.7 C212,142.7 215.7,142.7 219.3,142.7 Z" id="Path"></path>
                <path d="M188.4,63.1 C186.2,61.9 181.9,64.8 182,60.8 C182.1,57.3 186.3,59.1 188.6,59 C190.7,59 194.8,57.4 194.7,60.8 C194.7,64.8 190.5,61.8 188.4,63.1 Z" id="Path"></path>
                <path d="M87.3,231 C84,230.6 82.9,228.2 82.9,225.4 C82.9,187.9 83,150.4 83.1,112.8 C83.4,112.1 83.6,111.3 83.9,110.6 C85,107.8 87.5,107.4 90.1,107.4 C116.7,107.4 143.3,107.4 169.9,107.4 C173.1,107.4 175.8,108.4 176.8,111.9 C176.8,112 176.6,112.1 176.7,112.2 C176.8,112.4 176.9,112.6 177,112.8 C177.1,133.3 177.2,153.8 177.2,174.3 C177.2,190.8 177.2,207.3 177.2,223.8 C177.2,227.1 177,230.3 172.8,231 C144.1,231 115.7,231 87.3,231 Z M88,227.8 C89.6,229 91.5,228.8 93.3,228.8 C117.4,228.8 141.5,228.8 165.6,228.8 C167.4,228.8 169.3,229 170.9,228 C173.1,227.2 173.1,225.4 173.1,223.5 C173.1,214.3 173,205.2 173.2,196 C173.3,192.8 172,192.1 169.1,192.1 C143,192.2 116.8,192.2 90.7,192.1 C87.6,192.1 86.7,193.2 86.7,196.2 C86.8,205.4 86.8,214.5 86.7,223.7 C86.7,225.2 86.8,226.6 88,227.8 Z M150.9,134.7 C150.7,132.3 149.3,130.3 146.8,129.3 C143.5,128 141.1,129.8 138.9,132 C135.9,134.9 133.1,139.6 129.8,140 C126.3,140.4 123.8,135 120.8,132.2 C116.7,128.4 113.3,127.8 110.4,130.8 C107.6,133.6 108.2,137.3 111.9,141.2 C114.6,144.1 119.4,146.4 119.6,149.9 C119.8,153.6 114.7,155.6 112.2,158.7 C112.1,158.8 112,158.9 111.9,159.1 C108.4,162.9 108,166.4 111.1,169.1 C114.6,172.2 117.7,171 120.7,168 C123.5,165.2 126.2,160.6 129.4,160.3 C133.1,159.9 135.5,165.2 138.5,167.9 C142.4,171.3 145.7,171.8 148.5,168.9 C151.2,166.1 150.7,162.5 147.3,158.8 C144.6,155.9 139.6,153.5 139.7,150.1 C139.8,146.4 144.9,144.1 147.7,141 C149.2,139.2 150.9,137.6 150.9,134.7 Z" id="Shape" fill-rule="nonzero"></path>
                <path d="M87.3,231 C115.7,231 144.2,231 172.6,231 C171.5,231.9 170.1,231.7 168.8,231.7 C142.9,231.7 117,231.7 91.1,231.7 C89.8,231.7 88.4,231.9 87.3,231 Z" id="Path"></path>
                <path d="M134.8,239 C134.5,242 133.1,243.9 130.2,244.1 C127.3,244.3 125.3,242.7 125.1,239.8 C124.9,236.7 126.6,234.8 129.8,234.7 C132.8,234.5 134.2,236.5 134.8,239 Z" id="Path"></path>
                <path d="M83.8,110.6 C83.5,111.3 83.3,112.1 83,112.8 C82.9,111.9 83,111.1 83.8,110.6 Z" id="Path"></path>
                <path d="M176.8,112.8 C176.7,112.6 176.6,112.4 176.5,112.2 C176.5,112.1 176.6,112 176.6,111.9 C176.7,112.1 176.8,112.5 176.8,112.8 Z" id="Path"></path>
                <path d="M393.1,229.8 C392.6,204.8 392.7,179.8 393.1,154.8 C393.4,154.2 393.7,153.6 394,152.9 C394.3,152 395.1,151.7 396,151.7 C396.7,152.7 397.3,153.8 398,154.8 C397.6,155.5 396.8,156.2 396.8,156.8 C396.7,165.4 396.7,174.1 396.7,182.7 C396.7,185.4 398.6,185.4 400.5,185.4 C411.6,185.4 422.8,185.3 433.9,185.5 C436.9,185.5 438,184.6 437.9,181.5 C437.7,172.9 437.8,164.2 437.8,155.6 C437.5,155.3 437.2,155.1 436.9,154.8 L436.9,154.9 C437.3,150.9 439.6,154 441,153.8 C442,155.1 441.7,156.7 441.7,158.1 C441.7,180.9 441.7,203.7 441.7,226.5 C441.7,228 441.9,229.5 440.9,230.8 C440.6,231.1 440.3,231.5 440,231.8 C439.4,232.8 438.4,232.9 437.4,232.9 C423.6,232.8 409.8,232.7 396,232.7 C395.4,232.4 394.8,232.1 394.3,231.7 C394.3,231.7 394.1,231.5 394.1,231.5 C393.7,231 393.4,230.4 393.1,229.8 Z M409.9,220.8 C410.4,220.5 411.5,220.2 412,219.5 C415.4,214.9 418.4,214.8 422.2,219.4 C424.3,222 427.7,221 428.5,218.2 C429.2,215.8 427.6,214.3 426,213.2 C422.3,210.5 422.6,208.1 426.1,205.6 C426.6,205.2 427,204.7 427.5,204.2 C429,202.5 429.6,200.7 427.9,198.9 C426.2,197.2 424,197.1 422.6,198.9 C418.9,203.7 415.4,204.5 411.7,199 C411.5,198.7 411.2,198.5 410.9,198.4 C409.3,197.5 407.7,197.5 406.4,198.8 C405,200.2 405,201.8 406,203.3 C406.4,204 407,204.7 407.7,205.1 C411.4,207.8 412.2,210.5 407.9,213.4 C407.1,213.9 406.4,214.8 406,215.7 C404.9,218.3 406.7,221 409.9,220.8 Z" id="Shape" fill-rule="nonzero"></path>
                <path d="M440.9,153.8 C439.5,154 437.2,150.9 436.8,154.9 C423.8,155.3 410.9,155.3 397.9,154.9 C397.2,153.9 396.6,152.8 395.9,151.8 C409.8,150.7 423.7,151.5 437.6,151.4 C439.1,151.3 440.5,152 440.9,153.8 Z M434.1,153.1 C433.9,152.8 433.8,152.4 433.6,152.4 C433.4,152.3 433,152.6 432.8,152.7 C432.9,152.9 433,153.3 433.2,153.4 C433.5,153.4 433.8,153.2 434.1,153.1 Z" id="Shape" fill-rule="nonzero"></path>
                <path d="M421.1,239.7 C420.8,242.5 419.5,243.9 416.9,243.8 C414.6,243.7 413.2,242.3 413.1,240.1 C413,237.6 414.6,236 417,236 C419.5,235.9 420.9,237.5 421.1,239.7 Z" id="Path"></path>
                <path d="M394.2,231.7 C394.8,232 395.4,232.3 395.9,232.7 C395.1,232.8 394.5,232.5 394.2,231.7 Z" id="Path"></path>
                <path d="M393.1,229.8 C393.4,230.4 393.7,231 394.1,231.5 C393.3,231.2 392.9,230.7 393.1,229.8 Z" id="Path"></path>
                <path d="M394,152.9 C393.7,153.5 393.4,154.1 393.1,154.8 C392.9,153.9 393.1,153.3 394,152.9 Z" id="Path"></path>
                <path d="M440,231.8 C440.3,231.5 440.6,231.1 440.9,230.8 C440.5,231.1 440.2,231.5 440,231.8 Z" id="Path"></path>
                <path d="M88,227.8 C115.6,227.9 143.3,227.9 170.9,228 C169.2,229 167.4,228.8 165.6,228.8 C141.5,228.8 117.4,228.8 93.3,228.8 C91.4,228.8 89.6,229 88,227.8 Z" id="Path"></path>
                <path d="M437.8,155.7 C437.5,155.4 437.2,155.2 436.9,154.9 C437.2,155.1 437.5,155.4 437.8,155.7 Z" id="Path"></path>
                <path d="M434.1,153.1 C433.8,153.2 433.5,153.4 433.3,153.4 C433.1,153.3 433,152.9 432.9,152.7 C433.2,152.6 433.5,152.4 433.7,152.4 C433.8,152.4 433.9,152.8 434.1,153.1 Z" id="Path"></path>
                <path d="M120.4,208.6 C127.9,208.6 135.4,208.6 142.8,208.6 C144.2,208.6 146.2,208.2 146.2,210.4 C146.2,212.4 144.4,212.5 142.9,212.5 C127.8,212.5 112.7,212.5 97.6,212.5 C96.1,212.5 94.2,212.3 94.4,210.3 C94.6,208.3 96.5,208.6 98,208.6 C105.4,208.6 112.9,208.6 120.4,208.6 Z" id="Path"></path>
                <path d="M113.2,200.8 C118.4,200.8 123.5,200.8 128.7,200.8 C130.1,200.8 131.6,201 131.6,202.7 C131.6,204.4 130.1,204.7 128.7,204.7 C118.2,204.7 107.7,204.7 97.3,204.7 C95.9,204.7 94.4,204.5 94.4,202.7 C94.4,201 95.9,200.7 97.3,200.7 C102.5,200.8 107.9,200.8 113.2,200.8 Z" id="Path"></path>
                <path d="M103.4,216.4 C105.6,216.4 107.7,216.4 109.9,216.4 C111.1,216.4 112.3,216.8 112.2,218.4 C112.1,219.6 111.2,220.1 110.1,220.1 C105.6,220.1 101.1,220.2 96.7,220.1 C95.5,220.1 94.2,219.6 94.4,218.1 C94.5,216.7 95.8,216.4 97,216.4 C99.1,216.4 101.3,216.4 103.4,216.4 C103.4,216.4 103.4,216.4 103.4,216.4 Z" id="Path"></path>
                <path d="M420.4,172 C417.3,172 414.1,172 411,172 C409.7,172 408.1,171.9 408.2,170 C408.2,168.5 409.5,168.1 410.7,168.1 C417,168 423.3,168 429.6,168.1 C431,168.1 432.4,168.6 432.2,170.4 C432,171.9 430.7,172 429.5,172 C426.4,172 423.4,172 420.4,172 Z" id="Path"></path>
                <path d="M423.7,176 C425.9,176 428,175.9 430.2,176 C431.3,176.1 432.1,176.7 432.1,177.9 C432.1,179.1 431.2,179.7 430.2,179.7 C425.5,179.8 420.9,179.8 416.2,179.7 C415.2,179.7 414.3,179 414.3,177.8 C414.3,176.6 415.2,176 416.3,175.9 C418.7,175.9 421.2,176 423.7,176 C423.7,176 423.7,176 423.7,176 Z" id="Path"></path>
                <path d="M427,160.4 C428.7,160.9 431.7,159.4 432,162.2 C432.2,165.2 429.2,164.2 427.4,164.3 C425.6,164.3 422.6,165.2 422.4,162.6 C422.2,159.5 425.3,160.8 427,160.4 Z" id="Path"></path>
            </g>
        </g>
    </g>
</svg>