<svg width="16" height="16" viewBox="0 0 16 16" fill="none" xmlns="http://www.w3.org/2000/svg">
<g opacity="0.7">
<path opacity="0.7" fill-rule="evenodd" clip-rule="evenodd" d="M5 6C5 4.34315 6.34315 3 8 3C9.65685 3 11 4.34315 11 6C11 7.65685 9.65685 9 8 9C6.34315 9 5 7.65685 5 6ZM8 4C6.89543 4 6 4.89543 6 6C6 7.10457 6.89543 8 8 8C9.10457 8 10 7.10457 10 6C10 4.89543 9.10457 4 8 4Z" fill="currentColor"/>
<path opacity="0.7" fill-rule="evenodd" clip-rule="evenodd" d="M4.80641 10.9227C5.76265 10.3202 6.8698 10.0005 7.99999 10.0005C9.13017 10.0005 10.2373 10.3202 11.1935 10.9226M7.99999 11.0005C7.05844 11.0005 6.1361 11.2668 5.33949 11.7687L5.33949 11.7687C4.54285 12.2706 3.90445 12.9876 3.498 13.8369C3.3788 14.086 3.08024 14.1913 2.83115 14.0721C2.58206 13.9529 2.47677 13.6543 2.59598 13.4053C3.08387 12.3858 3.85019 11.5251 4.80641 10.9227L5.07295 11.3457L4.80641 10.9227M7.99999 11.0005C8.94154 11.0005 9.86386 11.2668 10.6604 11.7687ZM11.1935 10.9227C12.1498 11.5251 12.9161 12.3858 13.404 13.4052C13.5232 13.6543 13.4179 13.9529 13.1688 14.0721C12.9198 14.1913 12.6212 14.086 12.502 13.8369C12.0955 12.9876 11.4572 12.2706 10.6605 11.7687L10.6604 11.7687" fill="currentColor"/>
<path opacity="0.7" fill-rule="evenodd" clip-rule="evenodd" d="M0 8C0 3.58172 3.58172 0 8 0C12.4182 0 16 3.58172 16 8C16 12.4182 12.4182 16 8 16C3.58172 16 0 12.4182 0 8ZM8 1C4.134 1 1 4.134 1 8C1 11.866 4.134 15 8 15C11.866 15 15 11.866 15 8C15 4.134 11.866 1 8 1Z" fill="currentColor"/>
</g>
</svg>
