<svg width="16" height="16" viewBox="0 0 16 16" fill="none" xmlns="http://www.w3.org/2000/svg">
<path d="M8.00016 15.1666C4.04683 15.1666 0.833496 11.9533 0.833496 7.99992C0.833496 4.04659 4.04683 0.833252 8.00016 0.833252C11.9535 0.833252 15.1668 4.04659 15.1668 7.99992C15.1668 11.9533 11.9535 15.1666 8.00016 15.1666ZM8.00016 1.83325C4.60016 1.83325 1.8335 4.59992 1.8335 7.99992C1.8335 11.3999 4.60016 14.1666 8.00016 14.1666C11.4002 14.1666 14.1668 11.3999 14.1668 7.99992C14.1668 4.59992 11.4002 1.83325 8.00016 1.83325Z" fill="#070632"/>
<path d="M10.6668 8.5H5.3335C5.06016 8.5 4.8335 8.27333 4.8335 8C4.8335 7.72667 5.06016 7.5 5.3335 7.5H10.6668C10.9402 7.5 11.1668 7.72667 11.1668 8C11.1668 8.27333 10.9402 8.5 10.6668 8.5Z" fill="#070632"/>
<path d="M8 11.1666C7.72667 11.1666 7.5 10.9399 7.5 10.6666V5.33325C7.5 5.05992 7.72667 4.83325 8 4.83325C8.27333 4.83325 8.5 5.05992 8.5 5.33325V10.6666C8.5 10.9399 8.27333 11.1666 8 11.1666Z" fill="#34383D"/>
</svg>