<svg width="16" height="16" viewBox="0 0 16 16" fill="currentColor" xmlns="http://www.w3.org/2000/svg">
<path d="M8.66683 15.1663H3.3335C1.72016 15.1663 0.833496 14.2797 0.833496 12.6663V7.33301C0.833496 5.71967 1.72016 4.83301 3.3335 4.83301H6.66683C6.94016 4.83301 7.16683 5.05967 7.16683 5.33301V12.6663C7.16683 13.7197 7.6135 14.1663 8.66683 14.1663C8.94016 14.1663 9.16683 14.393 9.16683 14.6663C9.16683 14.9397 8.94016 15.1663 8.66683 15.1663ZM3.3335 5.83301C2.28016 5.83301 1.8335 6.27967 1.8335 7.33301V12.6663C1.8335 13.7197 2.28016 14.1663 3.3335 14.1663H6.53349C6.29349 13.773 6.16683 13.273 6.16683 12.6663V5.83301H3.3335Z" fill="currentColor"/>
<path d="M6.66683 5.83366H3.3335C3.06016 5.83366 2.8335 5.60699 2.8335 5.33366V4.00033C2.8335 2.98699 3.6535 2.16699 4.66683 2.16699H6.74015C6.89349 2.16699 7.04017 2.24031 7.1335 2.36031C7.22684 2.48698 7.26015 2.64699 7.22015 2.79366C7.18015 2.94033 7.16683 3.10699 7.16683 3.33366V5.33366C7.16683 5.60699 6.94016 5.83366 6.66683 5.83366ZM3.8335 4.83366H6.16683V3.33366C6.16683 3.27366 6.16683 3.22033 6.16683 3.16699H4.66683C4.20683 3.16699 3.8335 3.54033 3.8335 4.00033V4.83366Z" fill="currentColor"/>
<path d="M9.3335 9.16634C9.06016 9.16634 8.8335 8.93967 8.8335 8.66634V5.33301C8.8335 5.05967 9.06016 4.83301 9.3335 4.83301C9.60683 4.83301 9.8335 5.05967 9.8335 5.33301V8.66634C9.8335 8.93967 9.60683 9.16634 9.3335 9.16634Z" fill="currentColor"/>
<path d="M12 9.16634C11.7267 9.16634 11.5 8.93967 11.5 8.66634V5.33301C11.5 5.05967 11.7267 4.83301 12 4.83301C12.2733 4.83301 12.5 5.05967 12.5 5.33301V8.66634C12.5 8.93967 12.2733 9.16634 12 9.16634Z" fill="currentColor"/>
<path d="M12.0002 15.1663H9.3335C9.06016 15.1663 8.8335 14.9397 8.8335 14.6663V11.9997C8.8335 11.3597 9.36016 10.833 10.0002 10.833H11.3335C11.9735 10.833 12.5002 11.3597 12.5002 11.9997V14.6663C12.5002 14.9397 12.2735 15.1663 12.0002 15.1663ZM9.8335 14.1663H11.5002V11.9997C11.5002 11.9063 11.4268 11.833 11.3335 11.833H10.0002C9.90683 11.833 9.8335 11.9063 9.8335 11.9997V14.1663Z" fill="currentColor"/>
<path d="M4 11.8337C3.72667 11.8337 3.5 11.607 3.5 11.3337V8.66699C3.5 8.39366 3.72667 8.16699 4 8.16699C4.27333 8.16699 4.5 8.39366 4.5 8.66699V11.3337C4.5 11.607 4.27333 11.8337 4 11.8337Z" fill="currentColor"/>
<path d="M12.6665 15.1663H8.6665C7.05317 15.1663 6.1665 14.2797 6.1665 12.6663V3.33301C6.1665 1.71967 7.05317 0.833008 8.6665 0.833008H12.6665C14.2798 0.833008 15.1665 1.71967 15.1665 3.33301V12.6663C15.1665 14.2797 14.2798 15.1663 12.6665 15.1663ZM8.6665 1.83301C7.61317 1.83301 7.1665 2.27967 7.1665 3.33301V12.6663C7.1665 13.7197 7.61317 14.1663 8.6665 14.1663H12.6665C13.7198 14.1663 14.1665 13.7197 14.1665 12.6663V3.33301C14.1665 2.27967 13.7198 1.83301 12.6665 1.83301H8.6665Z" fill="currentColor"/>
</svg>
