<svg width="78" height="78" viewBox="0 0 78 78" fill="none" xmlns="http://www.w3.org/2000/svg">
<g filter="url(#filter0_d_847_119378)">
<circle cx="39" cy="38" r="27" fill="#ECE9FF"/>
</g>
<g clip-path="url(#clip0_847_119378)">
<g filter="url(#filter1_dd_847_119378)">
<path d="M38.2471 42.8955H39.753V44.4013H38.2471V42.8955Z" fill="#9375FF"/>
</g>
<g filter="url(#filter2_dd_847_119378)">
<path d="M44.249 42.8955H45.7549V44.4013H44.249V42.8955Z" fill="#9375FF"/>
</g>
<g filter="url(#filter3_dd_847_119378)">
<path d="M32.2461 37.2471H33.752V38.7529H32.2461V37.2471Z" fill="#9375FF"/>
</g>
<g filter="url(#filter4_dd_847_119378)">
<path d="M32.2461 42.8955H33.752V44.4013H32.2461V42.8955Z" fill="#9375FF"/>
</g>
<g filter="url(#filter5_dd_847_119378)">
<path d="M47.8256 28.1621H47.332V30.2334C47.332 30.5975 47.0369 30.8926 46.6729 30.8926C46.3088 30.8926 46.0137 30.5975 46.0137 30.2334V28.1621V27.4092C46.0137 27.0451 45.7185 26.75 45.3545 26.75C44.9904 26.75 44.6953 27.0451 44.6953 27.4092V28.1621H43.0957V30.2334C43.0957 30.5975 42.8006 30.8926 42.4365 30.8926C42.0725 30.8926 41.7773 30.5975 41.7773 30.2334V28.1621V27.4092C41.7773 27.0451 41.4822 26.75 41.1182 26.75C40.7541 26.75 40.459 27.0451 40.459 27.4092V28.1621H38.8594V30.2334C38.8594 30.5975 38.5642 30.8926 38.2002 30.8926C37.8362 30.8926 37.541 30.5975 37.541 30.2334V28.1621V27.4092C37.541 27.0451 37.2459 26.75 36.8818 26.75C36.5178 26.75 36.2227 27.0451 36.2227 27.4092V28.1621H34.623V30.2334C34.623 30.5975 34.3279 30.8926 33.9639 30.8926C33.5998 30.8926 33.3047 30.5975 33.3047 30.2334V28.1621V27.4092C33.3047 27.0451 33.0096 26.75 32.6455 26.75C32.2815 26.75 31.9863 27.0451 31.9863 27.4092V28.1621H30.1743C28.8376 28.1621 27.75 29.2497 27.75 30.5864V32.3984H50.25V30.5864C50.25 29.2497 49.1624 28.1621 47.8256 28.1621Z" fill="#9375FF"/>
</g>
<g filter="url(#filter6_dd_847_119378)">
<path d="M27.75 46.8257C27.75 48.1624 28.8376 49.25 30.1743 49.25H47.8256C49.1624 49.25 50.25 48.1624 50.25 46.8257V33.7168H27.75V46.8257ZM41.0713 45.0605C41.0713 45.4246 40.7761 45.7197 40.4121 45.7197H37.5878C37.2238 45.7197 36.9286 45.4246 36.9286 45.0605V42.2363C36.9286 41.8723 37.2238 41.5772 37.5878 41.5772H40.4121C40.7761 41.5772 41.0713 41.8723 41.0713 42.2363V45.0605ZM42.9302 36.5879C42.9302 36.2239 43.2253 35.9287 43.5894 35.9287H46.4136C46.7776 35.9287 47.0728 36.2239 47.0728 36.5879V39.4121C47.0728 39.7761 46.7776 40.0713 46.4136 40.0713H43.5894C43.2253 40.0713 42.9302 39.7761 42.9302 39.4121V36.5879ZM42.9302 42.2363C42.9302 41.8723 43.2253 41.5772 43.5894 41.5772H46.4136C46.7776 41.5772 47.0728 41.8723 47.0728 42.2363V45.0605C47.0728 45.4246 46.7776 45.7197 46.4136 45.7197H43.5894C43.2253 45.7197 42.9302 45.4246 42.9302 45.0605V42.2363ZM37.0362 37.5339C37.2936 37.2765 37.711 37.2765 37.9684 37.5339L38.5008 38.0663L40.0317 36.5354C40.2891 36.2781 40.7064 36.278 40.9639 36.5354C41.2213 36.7928 41.2213 37.2102 40.9639 37.4677L38.967 39.4647C38.8434 39.5883 38.6757 39.6578 38.5009 39.6578C38.3261 39.6578 38.1584 39.5883 38.0348 39.4647L37.0362 38.4661C36.7787 38.2087 36.7787 37.7913 37.0362 37.5339ZM30.9272 36.5879C30.9272 36.2239 31.2223 35.9287 31.5864 35.9287H34.4107C34.7747 35.9287 35.0698 36.2239 35.0698 36.5879V39.4121C35.0698 39.7761 34.7747 40.0713 34.4107 40.0713H31.5864C31.2223 40.0713 30.9272 39.7761 30.9272 39.4121V36.5879ZM30.9272 42.2363C30.9272 41.8723 31.2223 41.5772 31.5864 41.5772H34.4107C34.7747 41.5772 35.0698 41.8723 35.0698 42.2363V45.0605C35.0698 45.4246 34.7747 45.7197 34.4107 45.7197H31.5864C31.2223 45.7197 30.9272 45.4246 30.9272 45.0605V42.2363Z" fill="#9375FF"/>
</g>
<g filter="url(#filter7_dd_847_119378)">
<path d="M44.249 37.2471H45.7549V38.7529H44.249V37.2471Z" fill="#9375FF"/>
</g>
</g>
<defs>
<filter id="filter0_d_847_119378" x="0" y="0" width="78" height="78" filterUnits="userSpaceOnUse" color-interpolation-filters="sRGB">
<feFlood flood-opacity="0" result="BackgroundImageFix"/>
<feColorMatrix in="SourceAlpha" type="matrix" values="0 0 0 0 0 0 0 0 0 0 0 0 0 0 0 0 0 0 127 0" result="hardAlpha"/>
<feOffset dy="1"/>
<feGaussianBlur stdDeviation="6"/>
<feComposite in2="hardAlpha" operator="out"/>
<feColorMatrix type="matrix" values="0 0 0 0 0 0 0 0 0 0 0 0 0 0 0 0 0 0 0.04 0"/>
<feBlend mode="normal" in2="BackgroundImageFix" result="effect1_dropShadow_847_119378"/>
<feBlend mode="normal" in="SourceGraphic" in2="effect1_dropShadow_847_119378" result="shape"/>
</filter>
<filter id="filter1_dd_847_119378" x="36.2471" y="41.8955" width="5.50586" height="5.50586" filterUnits="userSpaceOnUse" color-interpolation-filters="sRGB">
<feFlood flood-opacity="0" result="BackgroundImageFix"/>
<feColorMatrix in="SourceAlpha" type="matrix" values="0 0 0 0 0 0 0 0 0 0 0 0 0 0 0 0 0 0 127 0" result="hardAlpha"/>
<feOffset/>
<feGaussianBlur stdDeviation="0.5"/>
<feColorMatrix type="matrix" values="0 0 0 0 0.196078 0 0 0 0 0.196078 0 0 0 0 0.278431 0 0 0 0.2 0"/>
<feBlend mode="normal" in2="BackgroundImageFix" result="effect1_dropShadow_847_119378"/>
<feColorMatrix in="SourceAlpha" type="matrix" values="0 0 0 0 0 0 0 0 0 0 0 0 0 0 0 0 0 0 127 0" result="hardAlpha"/>
<feOffset dy="1"/>
<feGaussianBlur stdDeviation="1"/>
<feColorMatrix type="matrix" values="0 0 0 0 0.196078 0 0 0 0 0.196078 0 0 0 0 0.278431 0 0 0 0.08 0"/>
<feBlend mode="normal" in2="effect1_dropShadow_847_119378" result="effect2_dropShadow_847_119378"/>
<feBlend mode="normal" in="SourceGraphic" in2="effect2_dropShadow_847_119378" result="shape"/>
</filter>
<filter id="filter2_dd_847_119378" x="42.249" y="41.8955" width="5.50586" height="5.50586" filterUnits="userSpaceOnUse" color-interpolation-filters="sRGB">
<feFlood flood-opacity="0" result="BackgroundImageFix"/>
<feColorMatrix in="SourceAlpha" type="matrix" values="0 0 0 0 0 0 0 0 0 0 0 0 0 0 0 0 0 0 127 0" result="hardAlpha"/>
<feOffset/>
<feGaussianBlur stdDeviation="0.5"/>
<feColorMatrix type="matrix" values="0 0 0 0 0.196078 0 0 0 0 0.196078 0 0 0 0 0.278431 0 0 0 0.2 0"/>
<feBlend mode="normal" in2="BackgroundImageFix" result="effect1_dropShadow_847_119378"/>
<feColorMatrix in="SourceAlpha" type="matrix" values="0 0 0 0 0 0 0 0 0 0 0 0 0 0 0 0 0 0 127 0" result="hardAlpha"/>
<feOffset dy="1"/>
<feGaussianBlur stdDeviation="1"/>
<feColorMatrix type="matrix" values="0 0 0 0 0.196078 0 0 0 0 0.196078 0 0 0 0 0.278431 0 0 0 0.08 0"/>
<feBlend mode="normal" in2="effect1_dropShadow_847_119378" result="effect2_dropShadow_847_119378"/>
<feBlend mode="normal" in="SourceGraphic" in2="effect2_dropShadow_847_119378" result="shape"/>
</filter>
<filter id="filter3_dd_847_119378" x="30.2461" y="36.2471" width="5.50586" height="5.50586" filterUnits="userSpaceOnUse" color-interpolation-filters="sRGB">
<feFlood flood-opacity="0" result="BackgroundImageFix"/>
<feColorMatrix in="SourceAlpha" type="matrix" values="0 0 0 0 0 0 0 0 0 0 0 0 0 0 0 0 0 0 127 0" result="hardAlpha"/>
<feOffset/>
<feGaussianBlur stdDeviation="0.5"/>
<feColorMatrix type="matrix" values="0 0 0 0 0.196078 0 0 0 0 0.196078 0 0 0 0 0.278431 0 0 0 0.2 0"/>
<feBlend mode="normal" in2="BackgroundImageFix" result="effect1_dropShadow_847_119378"/>
<feColorMatrix in="SourceAlpha" type="matrix" values="0 0 0 0 0 0 0 0 0 0 0 0 0 0 0 0 0 0 127 0" result="hardAlpha"/>
<feOffset dy="1"/>
<feGaussianBlur stdDeviation="1"/>
<feColorMatrix type="matrix" values="0 0 0 0 0.196078 0 0 0 0 0.196078 0 0 0 0 0.278431 0 0 0 0.08 0"/>
<feBlend mode="normal" in2="effect1_dropShadow_847_119378" result="effect2_dropShadow_847_119378"/>
<feBlend mode="normal" in="SourceGraphic" in2="effect2_dropShadow_847_119378" result="shape"/>
</filter>
<filter id="filter4_dd_847_119378" x="30.2461" y="41.8955" width="5.50586" height="5.50586" filterUnits="userSpaceOnUse" color-interpolation-filters="sRGB">
<feFlood flood-opacity="0" result="BackgroundImageFix"/>
<feColorMatrix in="SourceAlpha" type="matrix" values="0 0 0 0 0 0 0 0 0 0 0 0 0 0 0 0 0 0 127 0" result="hardAlpha"/>
<feOffset/>
<feGaussianBlur stdDeviation="0.5"/>
<feColorMatrix type="matrix" values="0 0 0 0 0.196078 0 0 0 0 0.196078 0 0 0 0 0.278431 0 0 0 0.2 0"/>
<feBlend mode="normal" in2="BackgroundImageFix" result="effect1_dropShadow_847_119378"/>
<feColorMatrix in="SourceAlpha" type="matrix" values="0 0 0 0 0 0 0 0 0 0 0 0 0 0 0 0 0 0 127 0" result="hardAlpha"/>
<feOffset dy="1"/>
<feGaussianBlur stdDeviation="1"/>
<feColorMatrix type="matrix" values="0 0 0 0 0.196078 0 0 0 0 0.196078 0 0 0 0 0.278431 0 0 0 0.08 0"/>
<feBlend mode="normal" in2="effect1_dropShadow_847_119378" result="effect2_dropShadow_847_119378"/>
<feBlend mode="normal" in="SourceGraphic" in2="effect2_dropShadow_847_119378" result="shape"/>
</filter>
<filter id="filter5_dd_847_119378" x="25.75" y="25.75" width="26.5" height="9.64844" filterUnits="userSpaceOnUse" color-interpolation-filters="sRGB">
<feFlood flood-opacity="0" result="BackgroundImageFix"/>
<feColorMatrix in="SourceAlpha" type="matrix" values="0 0 0 0 0 0 0 0 0 0 0 0 0 0 0 0 0 0 127 0" result="hardAlpha"/>
<feOffset/>
<feGaussianBlur stdDeviation="0.5"/>
<feColorMatrix type="matrix" values="0 0 0 0 0.196078 0 0 0 0 0.196078 0 0 0 0 0.278431 0 0 0 0.2 0"/>
<feBlend mode="normal" in2="BackgroundImageFix" result="effect1_dropShadow_847_119378"/>
<feColorMatrix in="SourceAlpha" type="matrix" values="0 0 0 0 0 0 0 0 0 0 0 0 0 0 0 0 0 0 127 0" result="hardAlpha"/>
<feOffset dy="1"/>
<feGaussianBlur stdDeviation="1"/>
<feColorMatrix type="matrix" values="0 0 0 0 0.196078 0 0 0 0 0.196078 0 0 0 0 0.278431 0 0 0 0.08 0"/>
<feBlend mode="normal" in2="effect1_dropShadow_847_119378" result="effect2_dropShadow_847_119378"/>
<feBlend mode="normal" in="SourceGraphic" in2="effect2_dropShadow_847_119378" result="shape"/>
</filter>
<filter id="filter6_dd_847_119378" x="25.75" y="32.7168" width="26.5" height="19.5332" filterUnits="userSpaceOnUse" color-interpolation-filters="sRGB">
<feFlood flood-opacity="0" result="BackgroundImageFix"/>
<feColorMatrix in="SourceAlpha" type="matrix" values="0 0 0 0 0 0 0 0 0 0 0 0 0 0 0 0 0 0 127 0" result="hardAlpha"/>
<feOffset/>
<feGaussianBlur stdDeviation="0.5"/>
<feColorMatrix type="matrix" values="0 0 0 0 0.196078 0 0 0 0 0.196078 0 0 0 0 0.278431 0 0 0 0.2 0"/>
<feBlend mode="normal" in2="BackgroundImageFix" result="effect1_dropShadow_847_119378"/>
<feColorMatrix in="SourceAlpha" type="matrix" values="0 0 0 0 0 0 0 0 0 0 0 0 0 0 0 0 0 0 127 0" result="hardAlpha"/>
<feOffset dy="1"/>
<feGaussianBlur stdDeviation="1"/>
<feColorMatrix type="matrix" values="0 0 0 0 0.196078 0 0 0 0 0.196078 0 0 0 0 0.278431 0 0 0 0.08 0"/>
<feBlend mode="normal" in2="effect1_dropShadow_847_119378" result="effect2_dropShadow_847_119378"/>
<feBlend mode="normal" in="SourceGraphic" in2="effect2_dropShadow_847_119378" result="shape"/>
</filter>
<filter id="filter7_dd_847_119378" x="42.249" y="36.2471" width="5.50586" height="5.50586" filterUnits="userSpaceOnUse" color-interpolation-filters="sRGB">
<feFlood flood-opacity="0" result="BackgroundImageFix"/>
<feColorMatrix in="SourceAlpha" type="matrix" values="0 0 0 0 0 0 0 0 0 0 0 0 0 0 0 0 0 0 127 0" result="hardAlpha"/>
<feOffset/>
<feGaussianBlur stdDeviation="0.5"/>
<feColorMatrix type="matrix" values="0 0 0 0 0.196078 0 0 0 0 0.196078 0 0 0 0 0.278431 0 0 0 0.2 0"/>
<feBlend mode="normal" in2="BackgroundImageFix" result="effect1_dropShadow_847_119378"/>
<feColorMatrix in="SourceAlpha" type="matrix" values="0 0 0 0 0 0 0 0 0 0 0 0 0 0 0 0 0 0 127 0" result="hardAlpha"/>
<feOffset dy="1"/>
<feGaussianBlur stdDeviation="1"/>
<feColorMatrix type="matrix" values="0 0 0 0 0.196078 0 0 0 0 0.196078 0 0 0 0 0.278431 0 0 0 0.08 0"/>
<feBlend mode="normal" in2="effect1_dropShadow_847_119378" result="effect2_dropShadow_847_119378"/>
<feBlend mode="normal" in="SourceGraphic" in2="effect2_dropShadow_847_119378" result="shape"/>
</filter>
<clipPath id="clip0_847_119378">
<rect width="24" height="24" fill="white" transform="translate(27 26)"/>
</clipPath>
</defs>
</svg>
