<svg id="Layer_1" data-name="Layer 1" xmlns="http://www.w3.org/2000/svg" viewBox="0 0 2880.5 1723"><defs><style>.cls-1{fill:#ccc;}.cls-2{fill:gray;}.cls-3{fill:none;stroke:gray;stroke-miterlimit:10;stroke-width:5px;}</style></defs><path class="cls-1" d="M538.09,555c-51.81,0-93.27-26.65-94.75-75.51H507a27.52,27.52,0,0,0,29.61,28.13c17.77,0,28.13-8.88,28.13-22.21,0-45.89-121.4-20.72-121.4-108.07,0-45.9,38.49-72.55,88.83-72.55,53.3,0,88.83,26.65,91.79,72.55H560.3a25.7,25.7,0,0,0-28.13-25.17c-14.8,0-25.17,7.4-25.17,22.21,0,42.93,119.92,23.68,119.92,105.11C626.92,520.92,595.83,555,538.09,555Z"/><path class="cls-1" d="M715.75,309.2h69.59L853.44,478l68.1-168.78h69.59V553.49H931.9V406.92L877.13,553.49H829.76L775,406.92V553.49H715.75Z"/><path class="cls-1" d="M1239.85,509.07h-91.79L1133.25,552h-62.18l88.84-244.29H1228L1316.83,552h-62.18ZM1194,374.35l-29.61,88.83H1225Z"/><path class="cls-1" d="M1496,309.2c59.21,0,90.31,34.06,90.31,77a71.24,71.24,0,0,1-54.79,71.06l56.27,96.24h-66.63l-50.33-91.79H1456v91.79h-59.22V309.2Zm-4.44,48.86h-37v60.7h37a28.57,28.57,0,0,0,32.57-31.09C1524.11,369.9,1513.74,358.06,1491.54,358.06Z"/><path class="cls-1" d="M1661.79,309.2h188v47.38h-65.15V553.49h-59.21V356.58H1660.3V309.2Z"/><path class="cls-1" d="M2048.2,555a123,123,0,0,1-125.84-125.85A125.1,125.1,0,1,1,2048.2,555Zm0-53.3c38.49,0,63.67-28.13,63.67-71.06s-25.18-71.07-63.67-71.07c-40,0-65.14,28.13-65.14,71.07S2008.23,501.67,2048.2,501.67Z"/><path class="cls-1" d="M2345.78,555c-51.81,0-93.27-26.65-94.75-75.51h63.66a27.52,27.52,0,0,0,29.61,28.13c17.76,0,28.13-8.88,28.13-22.21,0-45.89-121.4-20.72-121.4-108.07,0-45.9,38.5-72.55,88.83-72.55,53.3,0,88.83,26.65,91.79,72.55H2368a25.7,25.7,0,0,0-28.12-25.17c-14.81,0-25.17,7.4-25.17,22.21,0,42.93,119.92,23.68,119.92,105.11C2434.61,520.92,2403.52,555,2345.78,555Z"/><path class="cls-1" d="M465.55,686.73c-13.32,0-23.69-7.4-23.69-19.25h11.85a10.42,10.42,0,0,0,1,4.3,10.57,10.57,0,0,0,2.64,3.54,10.73,10.73,0,0,0,3.85,2.14,24.9,24.9,0,0,0,8.78,0,10.73,10.73,0,0,0,3.85-2.14,10.57,10.57,0,0,0,2.64-3.54,10.42,10.42,0,0,0,1-4.3c0-16.28-35.53-5.92-35.53-29.6a19.55,19.55,0,0,1,22.21-19.25c13.32,0,22.21,5.92,22.21,17.76H475.91c0-4.44-4.44-8.88-11.84-8.88-5.92,0-11.84,3-11.84,8.88,0,14.81,35.53,5.93,35.53,29.61a19.87,19.87,0,0,1-22.21,20.73Z"/><path class="cls-1" d="M548.46,620.11H560.3L584,671.93l23.69-51.82h11.84v66.62H609.16V640.84l-20.73,45.89h-8.88l-20.73-45.89v45.89H548.46Z"/><path class="cls-1" d="M718.72,671.93H690.59l-4.44,13.32H674.3L698,618.63h11.85l23.68,66.62H721.68Zm-13.32-38.5L695,664.52h22.21Z"/><path class="cls-1" d="M816.42,620.11c16.29,0,23.69,8.88,23.69,19.25a19.93,19.93,0,0,1-14.8,19.24l16.29,26.65H828.27l-14.8-26.65h-8.88v26.65H794.22V618.63h22.2Zm0,8.88H804.59V651.2h11.83c8.89,0,11.85-4.44,11.85-11.84a10.58,10.58,0,0,0-1-4.3,10.51,10.51,0,0,0-6.49-5.68A10.57,10.57,0,0,0,816.42,629Z"/><path class="cls-1" d="M897.85,620.11h45.9V629H926v57.74H915.62V629H897.85Z"/><path class="cls-1" d="M1038.5,629h-25.17v19.25h22.2v8.88h-22.2v20.73h25.17v8.88h-37V620.11h37Z"/><path class="cls-1" d="M1121.41,620.11c16.28,0,23.69,8.88,23.69,19.25a20,20,0,0,1-14.81,19.24l16.28,26.65h-13.32l-14.81-26.65h-8.88v26.65H1099.2V618.63h22.21Zm0,8.88h-11.85V651.2h11.85c8.88,0,11.84-4.44,11.84-11.84C1134.73,633.43,1130.29,629,1121.41,629Z"/><path class="cls-1" d="M1309.44,686.73a32.56,32.56,0,0,1-34.06-34.05,33.5,33.5,0,0,1,34.06-34,32.59,32.59,0,0,1,34,34,34.4,34.4,0,0,1-34,34.05Zm0-8.88a23.69,23.69,0,1,0-22.22-23.69,21.43,21.43,0,0,0,22.22,23.69Z"/><path class="cls-1" d="M1401.22,620.11h38.49V629h-28.13v19.25h22.22v8.88h-22.22v29.61h-10.36Z"/><path class="cls-1" d="M1497.46,620.11H1536V629h-28.13v19.25H1530v8.88h-22.21v29.61h-10.36Z"/><path class="cls-1" d="M1593.68,620.11h10.37v66.62h-10.37Z"/><path class="cls-1" d="M1695.84,618.63a34.57,34.57,0,0,1,31.1,19.24H1713.6a18,18,0,0,0-17.76-10.36,23.69,23.69,0,0,0,0,47.38,18,18,0,0,0,17.76-10.37h13.34a29.63,29.63,0,0,1-31.1,19.25,32.57,32.57,0,0,1-34-34,35.11,35.11,0,0,1,34-31.09Z"/><path class="cls-1" d="M1823.17,629H1798v19.25h22.2v8.88H1798v20.73h25.17v8.88h-37V620.11h37Z"/><path class="cls-1" d="M1978.61,686.73c-13.32,0-23.68-7.4-23.68-19.25h11.85a11.94,11.94,0,0,0,23.68,0c0-16.28-35.53-5.92-35.53-29.6a19.55,19.55,0,0,1,22.2-19.25c13.33,0,22.21,5.92,22.21,17.76H1987.5c0-4.44-4.45-8.88-11.84-8.88-5.93,0-11.85,3-11.85,8.88,0,14.81,35.53,5.93,35.53,29.61C2000.83,677.85,1993.42,686.73,1978.61,686.73Z"/><path class="cls-1" d="M2083.73,660.08h-11.84v26.65h-10.37V620.11h22.21c16.29,0,23.69,8.88,23.69,19.25S2101.49,660.08,2083.73,660.08Zm0-8.88c8.88,0,11.85-4.44,11.85-10.36,0-7.41-4.44-10.37-11.85-10.37h-11.84v22.21h11.84Z"/><path class="cls-1" d="M2197.73,671.93h-28.12l-4.45,13.32h-11.84L2177,618.63h11.85l23.69,66.62h-11.85Zm-13.32-38.5-10.36,31.09h22.2Z"/><path class="cls-1" d="M2298.41,618.63a34.51,34.51,0,0,1,31.08,19.24h-13.32a18,18,0,0,0-17.76-10.36,23.69,23.69,0,1,0,0,47.38,18,18,0,0,0,17.76-10.37h13.32a29.6,29.6,0,0,1-31.08,19.25,32.6,32.6,0,1,1,0-65.14Z"/><path class="cls-1" d="M2425.72,629h-25.16v19.25h22.21v8.88h-22.21v20.73h25.16v8.88h-37V620.11h37Z"/><path class="cls-2" d="M1325.33,1310.06H1289v-13.13h88.5v13.13h-36.54v106.4h-15.6Z"/><path class="cls-2" d="M1386.34,1376.38c.35,21.11,13.83,29.8,29.44,29.8,11.17,0,17.91-2,23.76-4.44l2.66,11.18c-5.5,2.48-14.9,5.32-28.55,5.32-26.43,0-42.21-17.38-42.21-43.28s15.25-46.28,40.26-46.28c28,0,35.47,24.65,35.47,40.43a57.92,57.92,0,0,1-.54,7.27Zm45.75-11.17c.18-9.93-4.08-25.36-21.63-25.36-15.79,0-22.71,14.54-24,25.36Z"/><path class="cls-2" d="M1473.24,1330.63l12.24,18.44c3.19,4.79,5.85,9.22,8.69,14h.53c2.84-5.14,5.67-9.57,8.51-14.19l12.06-18.26h16.85l-29.26,41.5,30.14,44.33h-17.73l-12.59-19.33c-3.37-5-6.21-9.75-9.22-14.89h-.36c-2.84,5.14-5.85,9.75-9,14.89l-12.42,19.33h-17.2l30.5-43.8-29.08-42Z"/><path class="cls-2" d="M1569.18,1306v24.65h22.35v11.88h-22.35v46.29c0,10.64,3,16.67,11.71,16.67a34.27,34.27,0,0,0,9-1.07l.71,11.71c-3,1.24-7.8,2.13-13.83,2.13-7.27,0-13.12-2.31-16.85-6.57-4.43-4.61-6-12.23-6-22.34v-46.82h-13.3v-11.88h13.3v-20.57Z"/><line class="cls-3" x1="2451.75" y1="874.33" x2="2451.75" y2="958.53"/><line class="cls-3" x1="428.75" y1="915.97" x2="2451.75" y2="915.97"/><line class="cls-3" x1="428.75" y1="873.99" x2="428.75" y2="958.19"/><line class="cls-3" x1="1443.68" y1="916.56" x2="1443.68" y2="1235.79"/></svg>