<svg width="78" height="78" viewBox="0 0 78 78" fill="none" xmlns="http://www.w3.org/2000/svg">
<g filter="url(#filter0_d_847_119343)">
<circle cx="39" cy="38" r="27" fill="#FFF7EB"/>
</g>
<g clip-path="url(#clip0_847_119343)">
<g filter="url(#filter1_dd_847_119343)">
<path d="M33.361 39.7475C33.4352 39.6354 33.5118 39.5254 33.5934 39.4181L33.76 39.1994L33.5649 39.0856C32.8967 38.6961 32.1282 38.4902 31.3418 38.4902C28.9478 38.49 27 40.3873 27 42.7191V44.0186C27 44.2588 27.2015 44.4545 27.4493 44.4545H32.3072V43.2259C32.3072 43.0843 32.3137 42.9346 32.3271 42.7549L32.3337 42.6685C32.3479 42.5073 32.3679 42.3494 32.3923 42.2003L32.3961 42.1797C32.4231 42.0183 32.4575 41.8554 32.4998 41.686C32.5399 41.529 32.5873 41.3689 32.6414 41.2105L32.4501 41.1473L32.6529 41.1766C32.7584 40.8723 32.8884 40.5735 33.0395 40.2885L33.0725 40.2259C33.1432 40.0955 33.2194 39.9664 33.299 39.842L33.361 39.7475Z" fill="#FFA564"/>
</g>
<g filter="url(#filter2_dd_847_119343)">
<path d="M31.3418 37.41C32.6078 37.41 33.6378 36.4073 33.6378 35.1747C33.6378 33.9422 32.6078 32.9395 31.3418 32.9395C30.0758 32.9395 29.0459 33.9422 29.0459 35.1749C29.0459 36.4073 30.0758 37.41 31.3418 37.41Z" fill="#FFA564"/>
</g>
<g filter="url(#filter3_dd_847_119343)">
<path d="M45.073 42.8358C45.069 42.7752 45.0648 42.7143 45.0586 42.654C45.0546 42.6136 45.049 42.5735 45.044 42.5332C45.0376 42.4794 45.0312 42.4255 45.0231 42.3724C45.0168 42.331 45.0091 42.2896 45.0019 42.2482C44.9928 42.1962 44.9837 42.1442 44.9734 42.0926C44.9652 42.0526 44.956 42.0127 44.9469 41.9726C44.9352 41.9201 44.9229 41.8673 44.9097 41.8154C44.9002 41.7781 44.8898 41.7411 44.8796 41.7042C44.8643 41.649 44.8484 41.594 44.8314 41.5396C44.8212 41.5069 44.8104 41.4742 44.7998 41.4417C44.7804 41.3827 44.76 41.3241 44.7388 41.2659C44.7286 41.2387 44.7186 41.2117 44.7082 41.1844C44.6836 41.1207 44.6581 41.0576 44.6311 40.9949C44.6222 40.9739 44.6133 40.9531 44.604 40.9321C44.5734 40.8629 44.5417 40.7947 44.5086 40.727C44.5016 40.7129 44.4948 40.6987 44.4878 40.6847C44.4509 40.6106 44.4122 40.5373 44.3721 40.4649C44.368 40.4571 44.3636 40.4494 44.3594 40.4416C44.3152 40.3628 44.2693 40.2851 44.2215 40.2086C44.2205 40.2071 44.2198 40.2057 44.2188 40.2042C43.1675 38.522 41.2667 37.3965 39.1008 37.3965C37.2502 37.3965 35.5933 38.2187 34.4942 39.5072C34.4859 39.517 34.4778 39.5266 34.4697 39.5363C34.4192 39.5962 34.3702 39.6572 34.3222 39.719C34.3115 39.7328 34.3005 39.747 34.2897 39.7612C34.2464 39.8181 34.2041 39.8761 34.1629 39.9345C34.1489 39.9544 34.1349 39.974 34.1213 39.9942C34.0856 40.0464 34.0508 40.0997 34.0166 40.153C33.9996 40.1799 33.9822 40.2063 33.9658 40.2333C33.9378 40.2787 33.9111 40.3248 33.8845 40.3708C33.8639 40.4065 33.8427 40.4418 33.823 40.4779C33.8043 40.5118 33.7869 40.5463 33.7688 40.5809C33.7435 40.6293 33.7178 40.6773 33.6938 40.7265C33.6921 40.7297 33.6907 40.7331 33.689 40.7365C33.5435 41.0361 33.425 41.3474 33.3337 41.6664C33.3305 41.6778 33.3271 41.6889 33.3239 41.7001C33.3052 41.7675 33.2881 41.8352 33.2719 41.9031C33.2668 41.924 33.2617 41.945 33.257 41.9658C33.2428 42.028 33.2299 42.0904 33.2178 42.1527C33.2122 42.1817 33.2071 42.2106 33.202 42.2395C33.1919 42.2964 33.1827 42.3533 33.1744 42.4106C33.1689 42.4485 33.164 42.4867 33.1594 42.5251C33.1532 42.5752 33.147 42.6251 33.142 42.6754C33.1369 42.7268 33.1335 42.7784 33.1298 42.83C33.1271 42.8689 33.1235 42.9078 33.1216 42.947C33.1171 43.0394 33.1143 43.1324 33.1143 43.2258V45.0535C33.1143 45.3264 33.3443 45.5483 33.6267 45.5483H44.5755C44.8579 45.5483 45.0879 45.3264 45.0879 45.0535V43.2261C45.0879 43.1297 45.0852 43.0337 45.0803 42.9385C45.0786 42.9043 45.0752 42.87 45.073 42.8358V42.8358Z" fill="#FFA564"/>
</g>
<g filter="url(#filter4_dd_847_119343)">
<path d="M38.9604 36.1373C40.5714 36.1373 41.8818 34.862 41.8818 33.2947C41.8818 31.7274 40.5714 30.4521 38.9604 30.4521C37.3495 30.4521 36.0391 31.7274 36.0391 33.2947C36.0391 34.862 37.3497 36.1373 38.9604 36.1373V36.1373Z" fill="#FFA564"/>
</g>
<g filter="url(#filter5_dd_847_119343)">
<path d="M46.6583 38.1895C45.8065 38.1895 44.9795 38.4312 44.2675 38.8888L44.0791 39.0098L44.2216 39.181C44.5399 39.563 44.8145 39.9847 45.0374 40.4338L45.0472 40.454C45.0882 40.5375 45.1275 40.6222 45.1659 40.7092L45.1801 40.7417C45.216 40.8254 45.2502 40.9097 45.2886 41.0099L45.296 41.0286C45.3689 41.2238 45.4319 41.4212 45.4833 41.6156L45.4952 41.664C45.5156 41.7429 45.5345 41.822 45.5517 41.9024L45.5723 42.0054C45.585 42.0687 45.5967 42.132 45.6073 42.1961C45.6137 42.235 45.6195 42.2738 45.6254 42.3127C45.6345 42.3745 45.6428 42.4363 45.6498 42.4991C45.6541 42.538 45.6589 42.5768 45.6626 42.6157C45.6693 42.6828 45.674 42.7503 45.6781 42.8179L45.6849 42.9196C45.6899 43.0211 45.6931 43.123 45.6931 43.2253V44.1533H50.551C50.7988 44.1533 51.0003 43.9577 51.0003 43.7173V42.4178C51.0001 40.0866 49.0524 38.1895 46.6583 38.1895V38.1895Z" fill="#FFA564"/>
</g>
<g filter="url(#filter6_dd_847_119343)">
<path d="M46.6582 37.2137C47.9242 37.2137 48.9542 36.211 48.9542 34.9784C48.9542 33.7459 47.9242 32.7432 46.6582 32.7432C45.3922 32.7432 44.3623 33.7459 44.3623 34.9784C44.3623 36.211 45.3922 37.2137 46.6582 37.2137V37.2137Z" fill="#FFA564"/>
</g>
</g>
<defs>
<filter id="filter0_d_847_119343" x="0" y="0" width="78" height="78" filterUnits="userSpaceOnUse" color-interpolation-filters="sRGB">
<feFlood flood-opacity="0" result="BackgroundImageFix"/>
<feColorMatrix in="SourceAlpha" type="matrix" values="0 0 0 0 0 0 0 0 0 0 0 0 0 0 0 0 0 0 127 0" result="hardAlpha"/>
<feOffset dy="1"/>
<feGaussianBlur stdDeviation="6"/>
<feComposite in2="hardAlpha" operator="out"/>
<feColorMatrix type="matrix" values="0 0 0 0 0 0 0 0 0 0 0 0 0 0 0 0 0 0 0.04 0"/>
<feBlend mode="normal" in2="BackgroundImageFix" result="effect1_dropShadow_847_119343"/>
<feBlend mode="normal" in="SourceGraphic" in2="effect1_dropShadow_847_119343" result="shape"/>
</filter>
<filter id="filter1_dd_847_119343" x="25" y="37.4902" width="10.7598" height="9.96387" filterUnits="userSpaceOnUse" color-interpolation-filters="sRGB">
<feFlood flood-opacity="0" result="BackgroundImageFix"/>
<feColorMatrix in="SourceAlpha" type="matrix" values="0 0 0 0 0 0 0 0 0 0 0 0 0 0 0 0 0 0 127 0" result="hardAlpha"/>
<feOffset/>
<feGaussianBlur stdDeviation="0.5"/>
<feColorMatrix type="matrix" values="0 0 0 0 0.196078 0 0 0 0 0.196078 0 0 0 0 0.278431 0 0 0 0.2 0"/>
<feBlend mode="normal" in2="BackgroundImageFix" result="effect1_dropShadow_847_119343"/>
<feColorMatrix in="SourceAlpha" type="matrix" values="0 0 0 0 0 0 0 0 0 0 0 0 0 0 0 0 0 0 127 0" result="hardAlpha"/>
<feOffset dy="1"/>
<feGaussianBlur stdDeviation="1"/>
<feColorMatrix type="matrix" values="0 0 0 0 0.196078 0 0 0 0 0.196078 0 0 0 0 0.278431 0 0 0 0.08 0"/>
<feBlend mode="normal" in2="effect1_dropShadow_847_119343" result="effect2_dropShadow_847_119343"/>
<feBlend mode="normal" in="SourceGraphic" in2="effect2_dropShadow_847_119343" result="shape"/>
</filter>
<filter id="filter2_dd_847_119343" x="27.0459" y="31.9395" width="8.5918" height="8.4707" filterUnits="userSpaceOnUse" color-interpolation-filters="sRGB">
<feFlood flood-opacity="0" result="BackgroundImageFix"/>
<feColorMatrix in="SourceAlpha" type="matrix" values="0 0 0 0 0 0 0 0 0 0 0 0 0 0 0 0 0 0 127 0" result="hardAlpha"/>
<feOffset/>
<feGaussianBlur stdDeviation="0.5"/>
<feColorMatrix type="matrix" values="0 0 0 0 0.196078 0 0 0 0 0.196078 0 0 0 0 0.278431 0 0 0 0.2 0"/>
<feBlend mode="normal" in2="BackgroundImageFix" result="effect1_dropShadow_847_119343"/>
<feColorMatrix in="SourceAlpha" type="matrix" values="0 0 0 0 0 0 0 0 0 0 0 0 0 0 0 0 0 0 127 0" result="hardAlpha"/>
<feOffset dy="1"/>
<feGaussianBlur stdDeviation="1"/>
<feColorMatrix type="matrix" values="0 0 0 0 0.196078 0 0 0 0 0.196078 0 0 0 0 0.278431 0 0 0 0.08 0"/>
<feBlend mode="normal" in2="effect1_dropShadow_847_119343" result="effect2_dropShadow_847_119343"/>
<feBlend mode="normal" in="SourceGraphic" in2="effect2_dropShadow_847_119343" result="shape"/>
</filter>
<filter id="filter3_dd_847_119343" x="31.1143" y="36.3965" width="15.9736" height="12.1514" filterUnits="userSpaceOnUse" color-interpolation-filters="sRGB">
<feFlood flood-opacity="0" result="BackgroundImageFix"/>
<feColorMatrix in="SourceAlpha" type="matrix" values="0 0 0 0 0 0 0 0 0 0 0 0 0 0 0 0 0 0 127 0" result="hardAlpha"/>
<feOffset/>
<feGaussianBlur stdDeviation="0.5"/>
<feColorMatrix type="matrix" values="0 0 0 0 0.196078 0 0 0 0 0.196078 0 0 0 0 0.278431 0 0 0 0.2 0"/>
<feBlend mode="normal" in2="BackgroundImageFix" result="effect1_dropShadow_847_119343"/>
<feColorMatrix in="SourceAlpha" type="matrix" values="0 0 0 0 0 0 0 0 0 0 0 0 0 0 0 0 0 0 127 0" result="hardAlpha"/>
<feOffset dy="1"/>
<feGaussianBlur stdDeviation="1"/>
<feColorMatrix type="matrix" values="0 0 0 0 0.196078 0 0 0 0 0.196078 0 0 0 0 0.278431 0 0 0 0.08 0"/>
<feBlend mode="normal" in2="effect1_dropShadow_847_119343" result="effect2_dropShadow_847_119343"/>
<feBlend mode="normal" in="SourceGraphic" in2="effect2_dropShadow_847_119343" result="shape"/>
</filter>
<filter id="filter4_dd_847_119343" x="34.0391" y="29.4521" width="9.84277" height="9.68555" filterUnits="userSpaceOnUse" color-interpolation-filters="sRGB">
<feFlood flood-opacity="0" result="BackgroundImageFix"/>
<feColorMatrix in="SourceAlpha" type="matrix" values="0 0 0 0 0 0 0 0 0 0 0 0 0 0 0 0 0 0 127 0" result="hardAlpha"/>
<feOffset/>
<feGaussianBlur stdDeviation="0.5"/>
<feColorMatrix type="matrix" values="0 0 0 0 0.196078 0 0 0 0 0.196078 0 0 0 0 0.278431 0 0 0 0.2 0"/>
<feBlend mode="normal" in2="BackgroundImageFix" result="effect1_dropShadow_847_119343"/>
<feColorMatrix in="SourceAlpha" type="matrix" values="0 0 0 0 0 0 0 0 0 0 0 0 0 0 0 0 0 0 127 0" result="hardAlpha"/>
<feOffset dy="1"/>
<feGaussianBlur stdDeviation="1"/>
<feColorMatrix type="matrix" values="0 0 0 0 0.196078 0 0 0 0 0.196078 0 0 0 0 0.278431 0 0 0 0.08 0"/>
<feBlend mode="normal" in2="effect1_dropShadow_847_119343" result="effect2_dropShadow_847_119343"/>
<feBlend mode="normal" in="SourceGraphic" in2="effect2_dropShadow_847_119343" result="shape"/>
</filter>
<filter id="filter5_dd_847_119343" x="42.0791" y="37.1895" width="10.9209" height="9.96387" filterUnits="userSpaceOnUse" color-interpolation-filters="sRGB">
<feFlood flood-opacity="0" result="BackgroundImageFix"/>
<feColorMatrix in="SourceAlpha" type="matrix" values="0 0 0 0 0 0 0 0 0 0 0 0 0 0 0 0 0 0 127 0" result="hardAlpha"/>
<feOffset/>
<feGaussianBlur stdDeviation="0.5"/>
<feColorMatrix type="matrix" values="0 0 0 0 0.196078 0 0 0 0 0.196078 0 0 0 0 0.278431 0 0 0 0.2 0"/>
<feBlend mode="normal" in2="BackgroundImageFix" result="effect1_dropShadow_847_119343"/>
<feColorMatrix in="SourceAlpha" type="matrix" values="0 0 0 0 0 0 0 0 0 0 0 0 0 0 0 0 0 0 127 0" result="hardAlpha"/>
<feOffset dy="1"/>
<feGaussianBlur stdDeviation="1"/>
<feColorMatrix type="matrix" values="0 0 0 0 0.196078 0 0 0 0 0.196078 0 0 0 0 0.278431 0 0 0 0.08 0"/>
<feBlend mode="normal" in2="effect1_dropShadow_847_119343" result="effect2_dropShadow_847_119343"/>
<feBlend mode="normal" in="SourceGraphic" in2="effect2_dropShadow_847_119343" result="shape"/>
</filter>
<filter id="filter6_dd_847_119343" x="42.3623" y="31.7432" width="8.5918" height="8.4707" filterUnits="userSpaceOnUse" color-interpolation-filters="sRGB">
<feFlood flood-opacity="0" result="BackgroundImageFix"/>
<feColorMatrix in="SourceAlpha" type="matrix" values="0 0 0 0 0 0 0 0 0 0 0 0 0 0 0 0 0 0 127 0" result="hardAlpha"/>
<feOffset/>
<feGaussianBlur stdDeviation="0.5"/>
<feColorMatrix type="matrix" values="0 0 0 0 0.196078 0 0 0 0 0.196078 0 0 0 0 0.278431 0 0 0 0.2 0"/>
<feBlend mode="normal" in2="BackgroundImageFix" result="effect1_dropShadow_847_119343"/>
<feColorMatrix in="SourceAlpha" type="matrix" values="0 0 0 0 0 0 0 0 0 0 0 0 0 0 0 0 0 0 127 0" result="hardAlpha"/>
<feOffset dy="1"/>
<feGaussianBlur stdDeviation="1"/>
<feColorMatrix type="matrix" values="0 0 0 0 0.196078 0 0 0 0 0.196078 0 0 0 0 0.278431 0 0 0 0.08 0"/>
<feBlend mode="normal" in2="effect1_dropShadow_847_119343" result="effect2_dropShadow_847_119343"/>
<feBlend mode="normal" in="SourceGraphic" in2="effect2_dropShadow_847_119343" result="shape"/>
</filter>
<clipPath id="clip0_847_119343">
<rect width="24" height="24" fill="white" transform="translate(27 26)"/>
</clipPath>
</defs>
</svg>
