<svg width="17" height="16" viewBox="0 0 17 16" fill="none" xmlns="http://www.w3.org/2000/svg">
<path d="M10.4999 8.63287H5.83325C5.55992 8.63287 5.33325 8.40621 5.33325 8.13287C5.33325 7.85954 5.55992 7.63287 5.83325 7.63287H10.4999C10.7733 7.63287 10.9999 7.85954 10.9999 8.13287C10.9999 8.40621 10.7733 8.63287 10.4999 8.63287Z" fill="#616568"/>
<path d="M8.75325 11.2995H5.83325C5.55992 11.2995 5.33325 11.0728 5.33325 10.7995C5.33325 10.5262 5.55992 10.2995 5.83325 10.2995H8.75325C9.02658 10.2995 9.25325 10.5262 9.25325 10.7995C9.25325 11.0728 9.02658 11.2995 8.75325 11.2995Z" fill="#616568"/>
<path d="M9.83325 4.49949H7.16659C6.52659 4.49949 5.33325 4.49949 5.33325 2.66616C5.33325 0.832825 6.52659 0.832825 7.16659 0.832825H9.83325C10.4733 0.832825 11.6666 0.832825 11.6666 2.66616C11.6666 3.30616 11.6666 4.49949 9.83325 4.49949ZM7.16659 1.83282C6.50659 1.83282 6.33325 1.83282 6.33325 2.66616C6.33325 3.49949 6.50659 3.49949 7.16659 3.49949H9.83325C10.6666 3.49949 10.6666 3.32616 10.6666 2.66616C10.6666 1.83282 10.4933 1.83282 9.83325 1.83282H7.16659Z" fill="#616568"/>
<path d="M10.5 15.1662H6.5C2.75333 15.1662 2 13.4462 2 10.6662V6.66615C2 3.62615 3.1 2.32615 5.80667 2.18615C6.07333 2.17282 6.32 2.37949 6.33333 2.65949C6.34667 2.93949 6.13333 3.16615 5.86 3.17949C3.96667 3.28615 3 3.85282 3 6.66615V10.6662C3 13.1328 3.48667 14.1662 6.5 14.1662H10.5C13.5133 14.1662 14 13.1328 14 10.6662V6.66615C14 3.85282 13.0333 3.28615 11.14 3.17949C10.8667 3.16615 10.6533 2.92615 10.6667 2.65282C10.68 2.37949 10.92 2.16615 11.1933 2.17949C13.9 2.32615 15 3.62615 15 6.65949V10.6595C15 13.4462 14.2467 15.1662 10.5 15.1662Z" fill="#616568"/>
</svg>
