<svg width="17" height="16" viewBox="0 0 17 16" fill="none" xmlns="http://www.w3.org/2000/svg">
<path d="M8.49992 15.1662C4.54659 15.1662 1.33325 11.9528 1.33325 7.99949C1.33325 4.04616 4.54659 0.832825 8.49992 0.832825C12.4533 0.832825 15.6666 4.04616 15.6666 7.99949C15.6666 11.9528 12.4533 15.1662 8.49992 15.1662ZM8.49992 1.83282C5.09992 1.83282 2.33325 4.59949 2.33325 7.99949C2.33325 11.3995 5.09992 14.1662 8.49992 14.1662C11.8999 14.1662 14.6666 11.3995 14.6666 7.99949C14.6666 4.59949 11.8999 1.83282 8.49992 1.83282Z" fill="#616568"/>
<path d="M6.61332 10.3862C6.48666 10.3862 6.35999 10.3395 6.25999 10.2395C6.06666 10.0462 6.06666 9.72617 6.25999 9.53284L10.0333 5.7595C10.2267 5.56617 10.5467 5.56617 10.74 5.7595C10.9333 5.95284 10.9333 6.27284 10.74 6.46617L6.96666 10.2395C6.87332 10.3395 6.73999 10.3862 6.61332 10.3862Z" fill="#616568"/>
<path d="M10.3867 10.3862C10.26 10.3862 10.1333 10.3395 10.0333 10.2395L6.25999 6.46617C6.06666 6.27284 6.06666 5.95284 6.25999 5.7595C6.45332 5.56617 6.77332 5.56617 6.96666 5.7595L10.74 9.53284C10.9333 9.72617 10.9333 10.0462 10.74 10.2395C10.64 10.3395 10.5133 10.3862 10.3867 10.3862Z" fill="#616568"/>
</svg>
