<svg width="16" height="16" viewBox="0 0 16 16" fill="ncurrentColorone" xmlns="http://www.w3.org/2000/svg">
<path d="M13.18 7.49967H10.4867C9.14667 7.49967 8.5 6.84634 8.5 5.51301V2.81967C8.5 1.47967 9.15333 0.833008 10.4867 0.833008H13.18C14.52 0.833008 15.1667 1.48634 15.1667 2.81967V5.51301C15.1667 6.84634 14.5133 7.49967 13.18 7.49967ZM10.4867 1.83301C9.7 1.83301 9.5 2.03301 9.5 2.81967V5.51301C9.5 6.29967 9.7 6.49967 10.4867 6.49967H13.18C13.9667 6.49967 14.1667 6.29967 14.1667 5.51301V2.81967C14.1667 2.03301 13.9667 1.83301 13.18 1.83301H10.4867Z" fill="currentColor"/>
<path d="M5.5135 7.49967H2.82016C1.48016 7.49967 0.833496 6.90634 0.833496 5.67967V2.65301C0.833496 1.42634 1.48683 0.833008 2.82016 0.833008H5.5135C6.8535 0.833008 7.50016 1.42634 7.50016 2.65301V5.67301C7.50016 6.90634 6.84683 7.49967 5.5135 7.49967ZM2.82016 1.83301C1.92683 1.83301 1.8335 2.08634 1.8335 2.65301V5.67301C1.8335 6.24634 1.92683 6.49301 2.82016 6.49301H5.5135C6.40683 6.49301 6.50016 6.23967 6.50016 5.67301V2.65301C6.50016 2.07967 6.40683 1.83301 5.5135 1.83301H2.82016Z" fill="currentColor"/>
<path d="M5.5135 15.1667H2.82016C1.48016 15.1667 0.833496 14.5133 0.833496 13.18V10.4867C0.833496 9.14667 1.48683 8.5 2.82016 8.5H5.5135C6.8535 8.5 7.50016 9.15333 7.50016 10.4867V13.18C7.50016 14.5133 6.84683 15.1667 5.5135 15.1667ZM2.82016 9.5C2.0335 9.5 1.8335 9.7 1.8335 10.4867V13.18C1.8335 13.9667 2.0335 14.1667 2.82016 14.1667H5.5135C6.30016 14.1667 6.50016 13.9667 6.50016 13.18V10.4867C6.50016 9.7 6.30016 9.5 5.5135 9.5H2.82016Z" fill="currentColor"/>
<path d="M13.6665 12.167H9.6665C9.39317 12.167 9.1665 11.9403 9.1665 11.667C9.1665 11.3937 9.39317 11.167 9.6665 11.167H13.6665C13.9398 11.167 14.1665 11.3937 14.1665 11.667C14.1665 11.9403 13.9398 12.167 13.6665 12.167Z" fill="currentColor"/>
<path d="M11.6665 14.167C11.3932 14.167 11.1665 13.9403 11.1665 13.667V9.66699C11.1665 9.39366 11.3932 9.16699 11.6665 9.16699C11.9398 9.16699 12.1665 9.39366 12.1665 9.66699V13.667C12.1665 13.9403 11.9398 14.167 11.6665 14.167Z" fill="currentColor"/>
</svg>
