<svg width="16" height="16" viewBox="0 0 16 16" fill="currentColor" xmlns="http://www.w3.org/2000/svg">
<path d="M14 14.6663H2C1.72667 14.6663 1.5 14.4396 1.5 14.1663C1.5 13.8929 1.72667 13.6663 2 13.6663H14C14.2733 13.6663 14.5 13.8929 14.5 14.1663C14.5 14.4396 14.2733 14.6663 14 14.6663Z" fill="currentColor568"/>
<path d="M12.6799 2.31945C11.3866 1.02612 10.1199 0.992787 8.79322 2.31945L7.98655 3.12612C7.91989 3.19279 7.89322 3.29945 7.91989 3.39279C8.42655 5.15945 9.83989 6.57279 11.6066 7.07945C11.6332 7.08612 11.6599 7.09279 11.6866 7.09279C11.7599 7.09279 11.8266 7.06612 11.8799 7.01279L12.6799 6.20612C13.3399 5.55279 13.6599 4.91945 13.6599 4.27945C13.6666 3.61945 13.3466 2.97945 12.6799 2.31945Z" fill="currentColor568"/>
<path d="M10.4066 7.68629C10.2132 7.59296 10.0266 7.49963 9.84655 7.39296C9.69989 7.30629 9.55989 7.21296 9.41989 7.11296C9.30655 7.03963 9.17322 6.93296 9.04655 6.82629C9.03322 6.81963 8.98655 6.77963 8.93322 6.72629C8.71322 6.53963 8.46655 6.29963 8.24655 6.03296C8.22655 6.01963 8.19322 5.97296 8.14655 5.91296C8.07989 5.83296 7.96655 5.69963 7.86655 5.54629C7.78655 5.44629 7.69322 5.29963 7.60655 5.15296C7.49989 4.97296 7.40655 4.79296 7.31322 4.60629V4.60629C7.19085 4.34407 6.84668 4.26617 6.64206 4.47079L2.89322 8.21963C2.80655 8.30629 2.72655 8.47296 2.70655 8.58629L2.34655 11.1396C2.27989 11.593 2.40655 12.0196 2.68655 12.3063C2.92655 12.5396 3.25989 12.6663 3.61989 12.6663C3.69989 12.6663 3.77989 12.6596 3.85989 12.6463L6.41989 12.2863C6.53989 12.2663 6.70655 12.1863 6.78655 12.0996L10.5416 8.3446C10.7421 8.14407 10.6668 7.79905 10.4066 7.68629V7.68629Z" fill="currentColor568"/>
</svg>
