<svg width="16" height="16" viewBox="0 0 16 16" fill="currentColor" xmlns="http://www.w3.org/2000/svg">
<path d="M12.6665 5.83301C11.2865 5.83301 10.1665 4.71301 10.1665 3.33301C10.1665 1.95301 11.2865 0.833008 12.6665 0.833008C14.0465 0.833008 15.1665 1.95301 15.1665 3.33301C15.1665 4.71301 14.0465 5.83301 12.6665 5.83301ZM12.6665 1.83301C11.8398 1.83301 11.1665 2.50634 11.1665 3.33301C11.1665 4.15967 11.8398 4.83301 12.6665 4.83301C13.4932 4.83301 14.1665 4.15967 14.1665 3.33301C14.1665 2.50634 13.4932 1.83301 12.6665 1.83301Z" fill="currentColor"/>
<path d="M7.99984 9.16699H4.6665C4.39317 9.16699 4.1665 8.94033 4.1665 8.66699C4.1665 8.39366 4.39317 8.16699 4.6665 8.16699H7.99984C8.27317 8.16699 8.49984 8.39366 8.49984 8.66699C8.49984 8.94033 8.27317 9.16699 7.99984 9.16699Z" fill="currentColor"/>
<path d="M10.6665 11.833H4.6665C4.39317 11.833 4.1665 11.6063 4.1665 11.333C4.1665 11.0597 4.39317 10.833 4.6665 10.833H10.6665C10.9398 10.833 11.1665 11.0597 11.1665 11.333C11.1665 11.6063 10.9398 11.833 10.6665 11.833Z" fill="currentColor"/>
<path d="M10.0002 15.1663H6.00016C2.38016 15.1663 0.833496 13.6197 0.833496 9.99967V5.99967C0.833496 2.37967 2.38016 0.833008 6.00016 0.833008H9.3335C9.60683 0.833008 9.8335 1.05967 9.8335 1.33301C9.8335 1.60634 9.60683 1.83301 9.3335 1.83301H6.00016C2.92683 1.83301 1.8335 2.92634 1.8335 5.99967V9.99967C1.8335 13.073 2.92683 14.1663 6.00016 14.1663H10.0002C13.0735 14.1663 14.1668 13.073 14.1668 9.99967V6.66634C14.1668 6.39301 14.3935 6.16634 14.6668 6.16634C14.9402 6.16634 15.1668 6.39301 15.1668 6.66634V9.99967C15.1668 13.6197 13.6202 15.1663 10.0002 15.1663Z" fill="currentColor"/>
</svg>
