<svg width="16" height="16" viewBox="0 0 16 16" fill="currentColor" xmlns="http://www.w3.org/2000/svg">
<path d="M14.1668 6.09947C12.6268 3.67947 10.3735 2.28613 8.00016 2.28613C6.8135 2.28613 5.66016 2.6328 4.60683 3.27947C3.5535 3.9328 2.60683 4.88613 1.8335 6.09947C1.16683 7.14613 1.16683 8.84613 1.8335 9.8928C3.3735 12.3195 5.62683 13.7061 8.00016 13.7061C9.18683 13.7061 10.3402 13.3595 11.3935 12.7128C12.4468 12.0595 13.3935 11.1061 14.1668 9.8928C14.8335 8.8528 14.8335 7.14613 14.1668 6.09947ZM8.00016 10.6928C6.50683 10.6928 5.30683 9.48613 5.30683 7.99947C5.30683 6.5128 6.50683 5.30613 8.00016 5.30613C9.4935 5.30613 10.6935 6.5128 10.6935 7.99947C10.6935 9.48613 9.4935 10.6928 8.00016 10.6928Z" fill="currentColor568"/>
<path d="M8.0001 6.09277C6.95343 6.09277 6.1001 6.94611 6.1001 7.99944C6.1001 9.04611 6.95343 9.89944 8.0001 9.89944C9.04676 9.89944 9.90676 9.04611 9.90676 7.99944C9.90676 6.95277 9.04676 6.09277 8.0001 6.09277Z" fill="currentColor568"/>
</svg>
