<svg width="16" height="16" viewBox="0 0 16 16" fill="currentColor" xmlns="http://www.w3.org/2000/svg">
<path d="M12.1935 15.1663H3.8068C1.54013 15.1663 1.42013 13.9197 1.32013 12.913L1.05346 9.57301C0.993463 8.92634 1.18013 8.27967 1.59346 7.75967C2.0868 7.15967 2.7868 6.83301 3.54013 6.83301H12.4601C13.2001 6.83301 13.9001 7.15967 14.3735 7.72634L14.4868 7.87967C14.8468 8.37301 15.0068 8.97301 14.9468 9.57967L14.6801 12.9063C14.5801 13.9197 14.4601 15.1663 12.1935 15.1663ZM3.54013 7.83301C3.09346 7.83301 2.6668 8.03301 2.3868 8.37967L2.34013 8.42634C2.1268 8.69967 2.01346 9.08634 2.05346 9.48634L2.32013 12.8263C2.41346 13.7997 2.45346 14.1663 3.8068 14.1663H12.1935C13.5535 14.1663 13.5868 13.7997 13.6801 12.8197L13.9468 9.47968C13.9868 9.08634 13.8735 8.69301 13.6135 8.38634L13.5468 8.30634C13.2468 7.99301 12.8668 7.83301 12.4535 7.83301H3.54013Z" fill="currentColor"/>
<path d="M13.6668 8.14685C13.3935 8.14685 13.1668 7.92018 13.1668 7.64685V6.45352C13.1668 4.46685 12.8202 4.12018 10.8335 4.12018H9.1335C8.38016 4.12018 8.12016 3.85352 7.8335 3.47352L6.9735 2.33352C6.68016 1.94685 6.6135 1.85352 6.0135 1.85352H5.16683C3.18016 1.85352 2.8335 2.20018 2.8335 4.18685V7.62018C2.8335 7.89352 2.60683 8.12018 2.3335 8.12018C2.06016 8.12018 1.8335 7.89352 1.8335 7.62018V4.18685C1.8335 1.63352 2.6135 0.853516 5.16683 0.853516H6.02016C7.04683 0.853516 7.36683 1.18685 7.78016 1.73352L8.6335 2.86685C8.8135 3.10685 8.82683 3.12018 9.14016 3.12018H10.8402C13.3935 3.12018 14.1735 3.90018 14.1735 6.45352V7.64685C14.1668 7.92018 13.9402 8.14685 13.6668 8.14685Z" fill="currentColor"/>
<path d="M9.71329 11.833H6.28662C6.01329 11.833 5.78662 11.6063 5.78662 11.333C5.78662 11.0597 6.01329 10.833 6.28662 10.833H9.71329C9.98662 10.833 10.2133 11.0597 10.2133 11.333C10.2133 11.6063 9.99329 11.833 9.71329 11.833Z" fill="currentColor"/>
</svg>
