<svg width="16" height="16" viewBox="0 0 16 16" fill="currentColor" xmlns="http://www.w3.org/2000/svg">
<path d="M8 11.5666C8.60015 11.5666 9.08666 11.0801 9.08666 10.48C9.08666 9.87983 8.60015 9.39331 8 9.39331C7.39985 9.39331 6.91333 9.87983 6.91333 10.48C6.91333 11.0801 7.39985 11.5666 8 11.5666Z" fill="currentColor"/>
<path d="M12.1866 6.35325V5.51992C12.1866 3.71992 11.7533 1.33325 7.99992 1.33325C4.24659 1.33325 3.81325 3.71992 3.81325 5.51992V6.35325C1.94659 6.58659 1.33325 7.53325 1.33325 9.85992V11.0999C1.33325 13.8333 2.16659 14.6666 4.89992 14.6666H11.0999C13.8333 14.6666 14.6666 13.8333 14.6666 11.0999V9.85992C14.6666 7.53325 14.0533 6.58659 12.1866 6.35325ZM7.99992 12.4933C6.88659 12.4933 5.98659 11.5866 5.98659 10.4799C5.98659 9.36659 6.89325 8.46659 7.99992 8.46659C9.10659 8.46659 10.0133 9.37325 10.0133 10.4799C10.0133 11.5933 9.11325 12.4933 7.99992 12.4933ZM4.89992 6.29325C4.84659 6.29325 4.79992 6.29325 4.74659 6.29325V5.51992C4.74659 3.56659 5.29992 2.26659 7.99992 2.26659C10.6999 2.26659 11.2533 3.56659 11.2533 5.51992V6.29992C11.1999 6.29992 11.1533 6.29992 11.0999 6.29992H4.89992V6.29325Z" fill="currentColor"/>
</svg>
