<svg width="17" height="16" viewBox="0 0 17 16" fill="none" xmlns="http://www.w3.org/2000/svg">
<path d="M10.6599 14.8462H10.5733C7.61326 14.8462 6.1866 13.6795 5.93993 11.0662C5.91326 10.7928 6.11326 10.5462 6.39326 10.5195C6.6666 10.4928 6.91326 10.6995 6.93993 10.9728C7.13326 13.0662 8.11993 13.8462 10.5799 13.8462H10.6666C13.3799 13.8462 14.3399 12.8862 14.3399 10.1728V5.82616C14.3399 3.11283 13.3799 2.15283 10.6666 2.15283H10.5799C8.1066 2.15283 7.11993 2.94617 6.93993 5.0795C6.9066 5.35283 6.67993 5.5595 6.39326 5.53283C6.11326 5.51283 5.91326 5.26616 5.93326 4.99283C6.15993 2.3395 7.59326 1.15283 10.5733 1.15283H10.6599C13.9333 1.15283 15.3333 2.55283 15.3333 5.82616V10.1728C15.3333 13.4462 13.9333 14.8462 10.6599 14.8462Z" fill="#616568"/>
<path d="M10.4199 8.49951H1.83325C1.55992 8.49951 1.33325 8.27285 1.33325 7.99951C1.33325 7.72618 1.55992 7.49951 1.83325 7.49951H10.4199C10.6933 7.49951 10.9199 7.72618 10.9199 7.99951C10.9199 8.27285 10.6999 8.49951 10.4199 8.49951Z" fill="#616568"/>
<path d="M8.93339 10.7328C8.80673 10.7328 8.68006 10.6862 8.58006 10.5862C8.38673 10.3928 8.38673 10.0728 8.58006 9.87949L10.4601 7.99949L8.58006 6.11949C8.38673 5.92616 8.38673 5.60616 8.58006 5.41282C8.77339 5.21949 9.09339 5.21949 9.28673 5.41282L11.5201 7.64616C11.7134 7.83949 11.7134 8.15949 11.5201 8.35282L9.28673 10.5862C9.18673 10.6862 9.06006 10.7328 8.93339 10.7328Z" fill="#616568"/>
</svg>
