<?xml version="1.0" encoding="UTF-8"?>
<svg width="174px" height="200px" viewBox="0 0 174 200" version="1.1" xmlns="http://www.w3.org/2000/svg" xmlns:xlink="http://www.w3.org/1999/xlink">
    <!-- Generator: Sketch 54 (76480) - https://sketchapp.com -->
    <title>logo</title>
    <desc>Created with Sketch.</desc>
    <g id="Page-1" stroke="none" stroke-width="1" fill="none" fill-rule="evenodd">
        <g id="logo" fill-rule="nonzero">
            <path d="M0.47,50.14 L0.47,104.72 L86.93,54.58 C86.93,54.58 134,81.89 134,81.89 L40.06,136.32 L55.74,145.42 L165.41,81.84 L87,36.32 L16.2,77.4 L16.2,59.24 L86.98,18.24 L173.53,68.38 L173.53,50.19 L86.93,0 L0.47,50.14" id="Path" fill="#F7D900"></path>
            <path d="M173.53,95.33 L55.74,163.63 C55.74,163.63 16.2,140.76 16.2,140.76 L16.2,132.12 L102.66,81.79 L87,72.74 L0.47,123 L0.47,149.75 L55.7,181.75 L157.8,122.6 L157.8,140.8 L71.38,190.9 L87.07,200 L173.53,149.86 L173.53,95.33 Z" id="Path" fill="#000000"></path>
        </g>
    </g>
</svg>