<svg width="12" height="12" viewBox="0 0 12 12" fill="currenColor" xmlns="http://www.w3.org/2000/svg">
<path d="M6 7.50006C7.86396 7.50006 9.375 6.04499 9.375 4.25006C9.375 2.45514 7.86396 1.00006 6 1.00006C4.13604 1.00006 2.625 2.45514 2.625 4.25006C2.625 6.04499 4.13604 7.50006 6 7.50006Z" fill="currenColor"/>
<path d="M7.895 7.80504C8.06 7.72004 8.25 7.84504 8.25 8.03004V10.455C8.25 10.905 7.935 11.125 7.545 10.94L6.205 10.305C6.09 10.255 5.91 10.255 5.795 10.305L4.455 10.94C4.065 11.12 3.75 10.9 3.75 10.45L3.76 8.03004C3.76 7.84504 3.955 7.72504 4.115 7.80504C4.68 8.09004 5.32 8.25004 6 8.25004C6.68 8.25004 7.325 8.09004 7.895 7.80504Z" fill="currenColor"/>
</svg>
