<svg width="12" height="12" viewBox="0 0 12 12" fill="currenColor" xmlns="http://www.w3.org/2000/svg">
<path d="M10.6251 9.23512L9.80012 9.43012C9.61512 9.47512 9.47012 9.61512 9.43012 9.80012L9.25512 10.5351C9.16012 10.9351 8.65012 11.0601 8.38512 10.7451L6.89012 9.02512C6.77012 8.88512 6.83512 8.66512 7.01512 8.62012C7.90012 8.40512 8.69512 7.91012 9.28012 7.20512C9.37512 7.09012 9.54512 7.07512 9.65012 7.18012L10.7601 8.29012C11.1401 8.67012 11.0051 9.14512 10.6251 9.23512Z" fill="currenColor"/>
<path d="M1.35008 9.23512L2.17508 9.43012C2.36008 9.47512 2.50508 9.61512 2.54508 9.80012L2.72008 10.5351C2.81508 10.9351 3.32508 11.0601 3.59008 10.7451L5.08508 9.02512C5.20508 8.88512 5.14008 8.66512 4.96008 8.62012C4.07508 8.40512 3.28008 7.91012 2.69508 7.20512C2.60008 7.09012 2.43008 7.07512 2.32508 7.18012L1.21508 8.29012C0.835081 8.67012 0.970081 9.14512 1.35008 9.23512Z" fill="currenColor"/>
<path d="M6 1.00012C4.065 1.00012 2.5 2.56512 2.5 4.50012C2.5 5.22512 2.715 5.89012 3.085 6.44512C3.625 7.24512 4.48 7.81012 5.475 7.95512C5.645 7.98512 5.82 8.00012 6 8.00012C6.18 8.00012 6.355 7.98512 6.525 7.95512C7.52 7.81012 8.375 7.24512 8.915 6.44512C9.285 5.89012 9.5 5.22512 9.5 4.50012C9.5 2.56512 7.935 1.00012 6 1.00012ZM7.53 4.39012L7.115 4.80512C7.045 4.87512 7.005 5.01012 7.03 5.11012L7.15 5.62512C7.245 6.03012 7.03 6.19012 6.67 5.97512L6.17 5.68012C6.08 5.62512 5.93 5.62512 5.84 5.68012L5.34 5.97512C4.98 6.18512 4.765 6.03012 4.86 5.62512L4.98 5.11012C5 5.01512 4.965 4.87512 4.895 4.80512L4.47 4.39012C4.225 4.14512 4.305 3.90012 4.645 3.84512L5.18 3.75512C5.27 3.74012 5.375 3.66012 5.415 3.58012L5.71 2.99012C5.87 2.67012 6.13 2.67012 6.29 2.99012L6.585 3.58012C6.625 3.66012 6.73 3.74012 6.825 3.75512L7.36 3.84512C7.695 3.90012 7.775 4.14512 7.53 4.39012Z" fill="currenColor"/>
</svg>
