<svg width="16" height="16" viewBox="0 0 16 16" fill="currentColor" xmlns="http://www.w3.org/2000/svg">
<path d="M9.99984 15.1663H5.99984C3.05984 15.1663 2.1665 14.273 2.1665 11.333V4.66634C2.1665 1.72634 3.05984 0.833008 5.99984 0.833008H9.99984C12.9398 0.833008 13.8332 1.72634 13.8332 4.66634V11.333C13.8332 14.273 12.9398 15.1663 9.99984 15.1663ZM5.99984 1.83301C3.61317 1.83301 3.1665 2.28634 3.1665 4.66634V11.333C3.1665 13.713 3.61317 14.1663 5.99984 14.1663H9.99984C12.3865 14.1663 12.8332 13.713 12.8332 11.333V4.66634C12.8332 2.28634 12.3865 1.83301 9.99984 1.83301H5.99984Z" fill="currentColor"/>
<path d="M9.33317 4.16699H6.6665C6.39317 4.16699 6.1665 3.94033 6.1665 3.66699C6.1665 3.39366 6.39317 3.16699 6.6665 3.16699H9.33317C9.6065 3.16699 9.83317 3.39366 9.83317 3.66699C9.83317 3.94033 9.6065 4.16699 9.33317 4.16699Z" fill="currentColor"/>
<path d="M8.00013 13.2395C7.15346 13.2395 6.4668 12.5529 6.4668 11.7062C6.4668 10.8595 7.15346 10.1729 8.00013 10.1729C8.8468 10.1729 9.53346 10.8595 9.53346 11.7062C9.53346 12.5529 8.8468 13.2395 8.00013 13.2395ZM8.00013 11.1662C7.7068 11.1662 7.4668 11.4062 7.4668 11.6995C7.4668 11.9929 7.7068 12.2329 8.00013 12.2329C8.29346 12.2329 8.53346 11.9929 8.53346 11.6995C8.53346 11.4062 8.29346 11.1662 8.00013 11.1662Z" fill="currentColor"/>
</svg>
