<svg width="16" height="16" viewBox="0 0 16 16" fill="currentColor" xmlns="http://www.w3.org/2000/svg">
<path d="M8 10.5C6.62 10.5 5.5 9.38 5.5 8C5.5 6.62 6.62 5.5 8 5.5C9.38 5.5 10.5 6.62 10.5 8C10.5 9.38 9.38 10.5 8 10.5ZM8 6.5C7.17333 6.5 6.5 7.17333 6.5 8C6.5 8.82667 7.17333 9.5 8 9.5C8.82667 9.5 9.5 8.82667 9.5 8C9.5 7.17333 8.82667 6.5 8 6.5Z" fill="currentColor"/>
<path d="M10.1402 14.7932C10.0002 14.7932 9.86016 14.7732 9.72016 14.7399C9.30683 14.6265 8.96016 14.3665 8.74016 13.9999L8.66016 13.8665C8.26683 13.1865 7.72683 13.1865 7.3335 13.8665L7.26016 13.9932C7.04016 14.3665 6.6935 14.6332 6.28016 14.7399C5.86016 14.8532 5.42683 14.7932 5.06016 14.5732L3.9135 13.9132C3.50683 13.6799 3.2135 13.2999 3.08683 12.8399C2.96683 12.3799 3.02683 11.9065 3.26016 11.4999C3.4535 11.1599 3.50683 10.8532 3.3935 10.6599C3.28016 10.4665 2.9935 10.3532 2.60016 10.3532C1.62683 10.3532 0.833496 9.55987 0.833496 8.58653V7.4132C0.833496 6.43987 1.62683 5.64653 2.60016 5.64653C2.9935 5.64653 3.28016 5.5332 3.3935 5.33987C3.50683 5.14653 3.46016 4.83987 3.26016 4.49987C3.02683 4.0932 2.96683 3.6132 3.08683 3.15987C3.20683 2.69987 3.50016 2.31987 3.9135 2.08653L5.06683 1.42653C5.82016 0.979865 6.8135 1.23987 7.26683 2.00653L7.34683 2.13987C7.74016 2.81987 8.28016 2.81987 8.6735 2.13987L8.74683 2.0132C9.20016 1.23987 10.1935 0.979865 10.9535 1.4332L12.1002 2.0932C12.5068 2.32653 12.8002 2.70653 12.9268 3.16653C13.0468 3.62653 12.9868 4.09987 12.7535 4.50653C12.5602 4.84653 12.5068 5.1532 12.6202 5.34653C12.7335 5.53987 13.0202 5.6532 13.4135 5.6532C14.3868 5.6532 15.1802 6.44653 15.1802 7.41987V8.5932C15.1802 9.56653 14.3868 10.3599 13.4135 10.3599C13.0202 10.3599 12.7335 10.4732 12.6202 10.6665C12.5068 10.8599 12.5535 11.1665 12.7535 11.5065C12.9868 11.9132 13.0535 12.3932 12.9268 12.8465C12.8068 13.3065 12.5135 13.6865 12.1002 13.9199L10.9468 14.5799C10.6935 14.7199 10.4202 14.7932 10.1402 14.7932ZM8.00016 12.3265C8.5935 12.3265 9.14683 12.6999 9.52683 13.3599L9.60016 13.4865C9.68016 13.6265 9.8135 13.7265 9.9735 13.7665C10.1335 13.8065 10.2935 13.7865 10.4268 13.7065L11.5802 13.0399C11.7535 12.9399 11.8868 12.7732 11.9402 12.5732C11.9935 12.3732 11.9668 12.1665 11.8668 11.9932C11.4868 11.3399 11.4402 10.6665 11.7335 10.1532C12.0268 9.63986 12.6335 9.34653 13.3935 9.34653C13.8202 9.34653 14.1602 9.00653 14.1602 8.57987V7.40653C14.1602 6.98653 13.8202 6.63987 13.3935 6.63987C12.6335 6.63987 12.0268 6.34653 11.7335 5.8332C11.4402 5.31987 11.4868 4.64653 11.8668 3.9932C11.9668 3.81987 11.9935 3.6132 11.9402 3.4132C11.8868 3.2132 11.7602 3.0532 11.5868 2.94653L10.4335 2.28653C10.1468 2.1132 9.76683 2.2132 9.5935 2.50653L9.52016 2.6332C9.14016 3.2932 8.58683 3.66653 7.9935 3.66653C7.40016 3.66653 6.84683 3.2932 6.46683 2.6332L6.3935 2.49987C6.22683 2.21987 5.8535 2.11987 5.56683 2.28653L4.4135 2.9532C4.24016 3.0532 4.10683 3.21987 4.0535 3.41987C4.00016 3.61987 4.02683 3.82653 4.12683 3.99987C4.50683 4.6532 4.5535 5.32653 4.26016 5.83987C3.96683 6.3532 3.36016 6.64653 2.60016 6.64653C2.1735 6.64653 1.8335 6.98653 1.8335 7.4132V8.58653C1.8335 9.00653 2.1735 9.3532 2.60016 9.3532C3.36016 9.3532 3.96683 9.64653 4.26016 10.1599C4.5535 10.6732 4.50683 11.3465 4.12683 11.9999C4.02683 12.1732 4.00016 12.3799 4.0535 12.5799C4.10683 12.7799 4.2335 12.9399 4.40683 13.0465L5.56016 13.7065C5.70016 13.7932 5.86683 13.8132 6.02016 13.7732C6.18016 13.7332 6.3135 13.6265 6.40016 13.4865L6.4735 13.3599C6.8535 12.7065 7.40683 12.3265 8.00016 12.3265Z" fill="currentColor"/>
</svg>
