<svg width="16" height="16" viewBox="0 0 16 16" fill="currentColor" xmlns="http://www.w3.org/2000/svg">
<path d="M11.3335 14.1663H4.66683C2.2335 14.1663 0.833496 12.7663 0.833496 10.333V5.66634C0.833496 3.23301 2.2335 1.83301 4.66683 1.83301H8.00016C8.2735 1.83301 8.50016 2.05967 8.50016 2.33301C8.50016 2.60634 8.2735 2.83301 8.00016 2.83301H4.66683C2.76016 2.83301 1.8335 3.75967 1.8335 5.66634V10.333C1.8335 12.2397 2.76016 13.1663 4.66683 13.1663H11.3335C13.2402 13.1663 14.1668 12.2397 14.1668 10.333V7.66634C14.1668 7.39301 14.3935 7.16634 14.6668 7.16634C14.9402 7.16634 15.1668 7.39301 15.1668 7.66634V10.333C15.1668 12.7663 13.7668 14.1663 11.3335 14.1663Z" fill="currentColor"/>
<path d="M7.99969 8.57985C7.43969 8.57985 6.87303 8.40652 6.43969 8.05319L4.35302 6.38652C4.13969 6.21319 4.09969 5.89985 4.27302 5.68652C4.44636 5.47318 4.75968 5.43319 4.97302 5.60652L7.05969 7.27319C7.56635 7.67985 8.42635 7.67985 8.93302 7.27319C9.14635 7.09985 9.4597 7.13318 9.63303 7.35318C9.80636 7.56652 9.77301 7.88652 9.55301 8.05319C9.12635 8.40652 8.55969 8.57985 7.99969 8.57985Z" fill="currentColor"/>
<path d="M11.16 6.4995C10.8866 6.4995 10.7 6.40617 10.58 6.3195C10.36 6.1595 10.0199 5.75951 10.2199 4.87951L10.2533 4.7395C10.2666 4.68617 10.2266 4.5595 10.1933 4.5195L9.95996 4.28616C9.56662 3.88616 9.41329 3.4195 9.54663 2.9995C9.67996 2.58617 10.0733 2.29284 10.6266 2.1995L10.88 2.15951C10.9266 2.14617 11.02 2.0795 11.0466 2.03284L11.2333 1.65283C11.4933 1.12617 11.8933 0.826172 12.3333 0.826172C12.7733 0.826172 13.1733 1.12617 13.4333 1.65283L13.62 2.03284C13.64 2.07284 13.74 2.14617 13.7866 2.15951L14.04 2.1995C14.5933 2.29284 14.9866 2.58617 15.12 2.9995C15.2533 3.41283 15.1066 3.8795 14.7066 4.28616L14.4733 4.5195C14.44 4.5595 14.4 4.68617 14.4133 4.7395L14.4466 4.87951C14.6466 5.75951 14.3066 6.1595 14.0866 6.3195C13.8666 6.4795 13.3866 6.67284 12.62 6.21284L12.4533 6.11283C12.4066 6.08617 12.2733 6.08617 12.2266 6.11283L12.0533 6.21284C11.6933 6.42617 11.3933 6.4995 11.16 6.4995ZM12.3266 1.83283C12.3199 1.8395 12.2266 1.90616 12.1333 2.0995L11.9466 2.4795C11.7866 2.80617 11.4066 3.08617 11.0533 3.14617L10.8 3.18617C10.5866 3.2195 10.5133 3.29284 10.5066 3.30617C10.5066 3.31951 10.5266 3.42616 10.6799 3.5795L10.9133 3.81284C11.1866 4.09284 11.3266 4.57283 11.2399 4.95283L11.2066 5.09283C11.1533 5.33283 11.1733 5.4595 11.1866 5.50616C11.2 5.49283 11.32 5.4795 11.54 5.34617L11.7133 5.24616C12.08 5.02616 12.6066 5.02616 12.9733 5.24616L13.14 5.34617C13.36 5.4795 13.4733 5.49284 13.5133 5.49284C13.5066 5.47284 13.5333 5.35283 13.4733 5.09283L13.44 4.95283C13.3533 4.56616 13.4933 4.09284 13.7666 3.81284L14 3.5795C14.1533 3.42616 14.1733 3.3195 14.1733 3.2995C14.1666 3.28617 14.0933 3.2195 13.88 3.1795L13.6266 3.13951C13.2666 3.07951 12.8933 2.79951 12.7333 2.47284L12.5466 2.0995C12.44 1.8995 12.3533 1.8395 12.3266 1.83283Z" fill="currentColor"/>
</svg>
