<svg width="16" height="16" viewBox="0 0 16 16" fill="currentColor" xmlns="http://www.w3.org/2000/svg">
<path d="M11.3333 2.33325H4.66659C2.66659 2.33325 1.33325 3.33325 1.33325 5.66659V10.3333C1.33325 12.6666 2.66659 13.6666 4.66659 13.6666H11.3333C13.3333 13.6666 14.6666 12.6666 14.6666 10.3333V5.66659C14.6666 3.33325 13.3333 2.33325 11.3333 2.33325ZM11.6466 6.39325L9.55992 8.05992C9.11992 8.41325 8.55992 8.58659 7.99992 8.58659C7.43992 8.58659 6.87325 8.41325 6.43992 8.05992L4.35325 6.39325C4.13992 6.21992 4.10659 5.89992 4.27325 5.68659C4.44659 5.47325 4.75992 5.43325 4.97325 5.60659L7.05992 7.27325C7.56659 7.67992 8.42659 7.67992 8.93325 7.27325L11.0199 5.60659C11.2333 5.43325 11.5533 5.46659 11.7199 5.68659C11.8933 5.89992 11.8599 6.21992 11.6466 6.39325Z" fill="currentColor"/>
</svg>
