<svg width="12" height="12" viewBox="0 0 12 12" fill="currenColor" xmlns="http://www.w3.org/2000/svg">
<path d="M7.69522 2.60514L8.40021 4.01514C8.49521 4.21014 8.75022 4.39514 8.96522 4.43514L10.2402 4.64514C11.0552 4.78014 11.2452 5.37014 10.6602 5.96014L9.66522 6.95514C9.50022 7.12014 9.40522 7.44514 9.46022 7.68014L9.74521 8.91014C9.97021 9.88014 9.45022 10.2601 8.59522 9.75014L7.40022 9.04014C7.18521 8.91014 6.82522 8.91014 6.61022 9.04014L5.41522 9.75014C4.56022 10.2551 4.04022 9.88014 4.26522 8.91014L4.55022 7.68014C4.59522 7.44014 4.50022 7.11514 4.33522 6.95014L3.34022 5.95514C2.75522 5.37014 2.94522 4.78014 3.76022 4.64014L5.03522 4.43014C5.25022 4.39514 5.50522 4.20514 5.60022 4.01014L6.30522 2.60014C6.69022 1.84014 7.31021 1.84014 7.69522 2.60514Z" fill="currenColor"/>
<path d="M4 2.87512H1C0.795 2.87512 0.625 2.70512 0.625 2.50012C0.625 2.29512 0.795 2.12512 1 2.12512H4C4.205 2.12512 4.375 2.29512 4.375 2.50012C4.375 2.70512 4.205 2.87512 4 2.87512Z" fill="currenColor"/>
<path d="M2.5 9.87512H1C0.795 9.87512 0.625 9.70512 0.625 9.50012C0.625 9.29512 0.795 9.12512 1 9.12512H2.5C2.705 9.12512 2.875 9.29512 2.875 9.50012C2.875 9.70512 2.705 9.87512 2.5 9.87512Z" fill="currenColor"/>
<path d="M1.5 6.37512H1C0.795 6.37512 0.625 6.20512 0.625 6.00012C0.625 5.79512 0.795 5.62512 1 5.62512H1.5C1.705 5.62512 1.875 5.79512 1.875 6.00012C1.875 6.20512 1.705 6.37512 1.5 6.37512Z" fill="currenColor"/>
</svg>
