<svg width="12" height="12" viewBox="0 0 12 12" fill="currenColor" xmlns="http://www.w3.org/2000/svg">
<path d="M9.3501 7.23014C9.1751 7.40514 9.0751 7.75514 9.1301 7.99514L9.4751 9.50514C9.6201 10.1301 9.5301 10.6001 9.2201 10.8251C9.0951 10.9151 8.9451 10.9601 8.7701 10.9601C8.5151 10.9601 8.2151 10.8651 7.8851 10.6701L6.4201 9.80014C6.1901 9.66514 5.8101 9.66514 5.5801 9.80014L4.1151 10.6701C3.5601 10.9951 3.0851 11.0501 2.7801 10.8251C2.7601 10.8101 2.7401 10.7951 2.7251 10.7751L9.0351 4.46514C9.2651 4.23514 9.5901 4.13014 9.9101 4.18514L9.9851 4.20014C10.5151 4.29014 10.8701 4.53014 10.9851 4.88014C11.0951 5.23014 10.9451 5.63514 10.5651 6.01514L9.3501 7.23014Z" fill="currenColor"/>
<path d="M2.87017 8.00012C2.92517 7.76012 2.82517 7.40512 2.65017 7.23012L1.43517 6.01512C1.05517 5.63512 0.905174 5.23012 1.01517 4.88012C1.13017 4.53012 1.48517 4.29012 2.01517 4.20012L3.57517 3.94012C3.80017 3.90012 4.07517 3.70012 4.18017 3.49512L5.04017 1.77012C5.29017 1.27512 5.63017 1.00012 6.00017 1.00012C6.37017 1.00012 6.71017 1.27512 6.96017 1.77012L7.82017 3.49512C7.88517 3.62512 8.02017 3.75012 8.16517 3.83512L2.53517 9.46512L2.87017 8.00012Z" fill="currenColor"/>
<path d="M10.8849 1.11512C10.7349 0.965125 10.4899 0.965125 10.3399 1.11512L1.11494 10.3451C0.964941 10.4951 0.964941 10.7401 1.11494 10.8901C1.18994 10.9601 1.28494 11.0001 1.38494 11.0001C1.48494 11.0001 1.57994 10.9601 1.65494 10.8851L10.8849 1.65512C11.0399 1.50512 11.0399 1.26512 10.8849 1.11512Z" fill="currenColor"/>
</svg>
