<svg width="17" height="16" viewBox="0 0 17 16" fill="currentColor" xmlns="http://www.w3.org/2000/svg">
<path d="M14.9216 3.4861C13.8483 3.37943 12.7749 3.29943 11.6949 3.23943V3.23276L11.5483 2.3661C11.4483 1.75276 11.3016 0.832764 9.74161 0.832764H7.99494C6.44161 0.832764 6.29494 1.71276 6.18828 2.35943L6.04828 3.21276C5.42828 3.25276 4.80828 3.29276 4.18828 3.35276L2.82828 3.4861C2.54828 3.51276 2.34828 3.75943 2.37494 4.03276C2.40161 4.3061 2.64161 4.5061 2.92161 4.47943L4.28161 4.3461C7.77494 3.99943 11.2949 4.13276 14.8283 4.4861C14.8483 4.4861 14.8616 4.4861 14.8816 4.4861C15.1349 4.4861 15.3549 4.29276 15.3816 4.03276C15.4016 3.75943 15.2016 3.51276 14.9216 3.4861Z" fill="currentColorA9D"/>
<path d="M13.6952 5.42626C13.5352 5.25959 13.3152 5.16626 13.0885 5.16626H4.66183C4.43516 5.16626 4.20849 5.25959 4.05516 5.42626C3.90183 5.59293 3.81516 5.81959 3.82849 6.05293L4.24183 12.8929C4.31516 13.9063 4.40849 15.1729 6.73516 15.1729H11.0152C13.3418 15.1729 13.4352 13.9129 13.5085 12.8929L13.9218 6.05959C13.9352 5.81959 13.8485 5.59293 13.6952 5.42626ZM9.98182 11.8329H7.76183C7.48849 11.8329 7.26183 11.6063 7.26183 11.3329C7.26183 11.0596 7.48849 10.8329 7.76183 10.8329H9.98182C10.2552 10.8329 10.4818 11.0596 10.4818 11.3329C10.4818 11.6063 10.2552 11.8329 9.98182 11.8329ZM10.5418 9.16626H7.20849C6.93516 9.16626 6.70849 8.93959 6.70849 8.66626C6.70849 8.39293 6.93516 8.16626 7.20849 8.16626H10.5418C10.8152 8.16626 11.0418 8.39293 11.0418 8.66626C11.0418 8.93959 10.8152 9.16626 10.5418 9.16626Z" fill="currentColorA9D"/>
</svg>
