<svg width="16" height="16" viewBox="0 0 16 16" fill="currentColor" xmlns="http://www.w3.org/2000/svg">
<path d="M7.99994 15.1667C7.55327 15.1667 7.09994 15.0534 6.69994 14.8201L2.73994 12.5334C1.93994 12.0667 1.43994 11.2067 1.43994 10.2801V5.72008C1.43994 4.79341 1.93994 3.93341 2.73994 3.46674L6.69994 1.18008C7.49994 0.713411 8.49327 0.713411 9.29994 1.18008L13.2599 3.46674C14.0599 3.93341 14.5599 4.79341 14.5599 5.72008V10.2801C14.5599 11.2067 14.0599 12.0667 13.2599 12.5334L9.29994 14.8201C8.89994 15.0534 8.44661 15.1667 7.99994 15.1667ZM7.99994 1.8334C7.72661 1.8334 7.44661 1.90674 7.19994 2.04674L3.23994 4.3334C2.74661 4.62006 2.43994 5.14674 2.43994 5.72008V10.2801C2.43994 10.8467 2.74661 11.3801 3.23994 11.6667L7.19994 13.9534C7.69327 14.2401 8.30661 14.2401 8.79994 13.9534L12.7599 11.6667C13.2533 11.3801 13.5599 10.8534 13.5599 10.2801V5.72008C13.5599 5.15341 13.2533 4.62006 12.7599 4.3334L8.79994 2.04674C8.55327 1.90674 8.27327 1.8334 7.99994 1.8334Z" fill="currentColor"/>
<path d="M8.00011 7.83321C6.86678 7.83321 5.94678 6.9132 5.94678 5.77987C5.94678 4.64653 6.86678 3.72656 8.00011 3.72656C9.13344 3.72656 10.0534 4.64653 10.0534 5.77987C10.0534 6.9132 9.13344 7.83321 8.00011 7.83321ZM8.00011 4.72656C7.42011 4.72656 6.94678 5.19987 6.94678 5.77987C6.94678 6.35987 7.42011 6.83321 8.00011 6.83321C8.58011 6.83321 9.05344 6.35987 9.05344 5.77987C9.05344 5.19987 8.58011 4.72656 8.00011 4.72656Z" fill="currentColor"/>
<path d="M10.6668 11.6069C10.3935 11.6069 10.1668 11.3802 10.1668 11.1069C10.1668 10.1869 9.1935 9.43359 8.00016 9.43359C6.80683 9.43359 5.8335 10.1869 5.8335 11.1069C5.8335 11.3802 5.60683 11.6069 5.3335 11.6069C5.06016 11.6069 4.8335 11.3802 4.8335 11.1069C4.8335 9.63356 6.2535 8.43359 8.00016 8.43359C9.74683 8.43359 11.1668 9.63356 11.1668 11.1069C11.1668 11.3802 10.9402 11.6069 10.6668 11.6069Z" fill="currentColor"/>
</svg>
